<?xml version="1.0" encoding="UTF-8"?>
<svg id="Layer_2" data-name="Layer 2" xmlns="http://www.w3.org/2000/svg" viewBox="0 0 266.14 614.25">
  <defs>
    <style>
      .cls-1 {
        fill: #bf885d;
        stroke-width: 0px;
      }
    </style>
  </defs>
  <g id="Layer_1-2" data-name="Layer 1">
    <g>
      <path class="cls-1" d="M131.87,352.83c33.9,0,67.81,0,101.71.01,3.41,0,6.83-.05,10.12,1.13,1.95.7,3.51,1.83,4.75,3.49,5.11,6.79,10.24,13.55,15.37,20.32,1.56,2.06,2.33,4.32,2.31,6.96-.07,8.83-.08,17.66,0,26.49.03,2.95-.95,5.36-2.99,7.41-4.83,4.83-9.54,9.78-14.52,14.46-3.7,3.47-8.46,4.56-13.4,4.57-22.74.05-45.48.03-68.22.04-45.81,0-91.63-.26-137.44.15-14.93.14-28.82-11.28-29.37-28.68-.29-9.32-.23-18.66,0-27.99.31-12.83,8.25-23.46,20.08-27.39,2.65-.88,5.39-.96,8.15-.96,34.49,0,68.97,0,103.46,0Z"/>
      <path class="cls-1" d="M130.62,563.79c32.07,0,64.15,0,96.22,0,5.18,0,4.48-.18,4.53,4.64.02,2.5-.16,5.01.05,7.49.22,2.62-.87,3.5-3.31,3.16-.33-.05-.67,0-1,0-64.23,0-128.46,0-192.69,0-.75,0-1.5-.06-2.25,0-1.78.15-2.32-.72-2.29-2.39.07-3.5.1-7,0-10.5-.06-1.91.76-2.45,2.53-2.42,4.58.07,9.16.02,13.75.02,28.16,0,56.32,0,84.48,0Z"/>
      <path class="cls-1" d="M130.37,231.72c-32.23,0-64.47,0-96.7,0q-3.78,0-3.78-3.88c0-3.08.06-6.17-.02-9.25-.04-1.62.61-2.3,2.2-2.21.83.05,1.67,0,2.5,0,64.14,0,128.27,0,192.41,0,5.15,0,4.36-.07,4.42,4.49.03,2.91-.03,5.83.01,8.75.02,1.47-.59,2.17-2.08,2.11-.91-.04-1.83,0-2.75,0-32.07,0-64.14,0-96.2,0Z"/>
      <path class="cls-1" d="M50.09,131.06c0,23.9,0,47.8,0,71.7,0,3.67-.02,3.67-3.75,3.66-4.66-.01-9.33-.08-13.99-.03-1.71.02-2.49-.61-2.34-2.34.04-.5,0-1,0-1.5,0-47.8,0-95.6,0-143.41q0-3.72,3.68-3.75c4.16-.03,8.33-.05,12.49-.07q3.91-.01,3.92,4.02c0,23.9,0,47.8,0,71.7Z"/>
      <path class="cls-1" d="M80.35,130.89c0,23.91,0,47.81,0,71.72,0,3.83-.01,3.83-3.85,3.82-4.5-.01-9-.13-13.49-.01-2.24.06-2.85-.81-2.84-2.93.07-11.99.03-23.99.03-35.98,0-36.07,0-72.13,0-108.2q0-3.87,3.8-3.91c4.33-.03,8.66-.06,12.99-.06,3.32,0,3.36.03,3.36,3.34,0,24.07,0,48.14,0,72.22Z"/>
      <path class="cls-1" d="M110.55,147.43c0,17.99,0,35.97,0,53.96,0,5.86.26,4.99-5.16,5.02-4.08.03-8.16-.1-12.24,0-1.98.04-2.81-.54-2.81-2.68.05-37.47.03-74.94.06-112.42,0-3.66,1.9-5.54,5.53-5.64,2.83-.08,5.66-.07,8.49-.05,4.3.04,6.09,1.77,6.11,6.09.05,12.07.02,24.15.02,36.22,0,6.5,0,12.99,0,19.49Z"/>
      <path class="cls-1" d="M120.53,501c0-16.32,0-32.64,0-48.96q0-3.91,4.02-3.93c4.41-.02,8.83.08,13.24-.09,2.3-.09,3.05.69,3.03,2.98-.09,9.82-.04,19.65-.04,29.47,0,23.15,0,46.29,0,69.44,0,3.87-.01,3.88-3.82,3.87-4.5-.01-9-.14-13.49,0-2.37.07-2.98-.87-2.97-3.08.06-16.57.03-33.14.03-49.71Z"/>
      <path class="cls-1" d="M201.17,501.25c0,16.4,0,32.8,0,49.2,0,3.34-.02,3.35-3.32,3.34-4,0-7.99,0-11.99-.04-5.2-.06-4.91.63-4.91-5.06,0-13.49,0-26.97,0-40.46,0-18.81,0-37.63,0-56.44,0-3.63.02-3.64,3.54-3.66,4.58-.02,9.16.08,13.73-.09,2.35-.09,3,.77,3,3.02-.07,16.73-.04,33.47-.04,50.2Z"/>
      <path class="cls-1" d="M231.34,501.23c0,16.41,0,32.82,0,49.22,0,3.33-.01,3.34-3.32,3.34-4.58,0-9.17-.14-13.74,0-2.44.08-3.15-.85-3.13-3.19.07-14.91.03-29.82.03-44.73,0-17.99,0-35.98,0-53.97,0-3.76.02-3.76,3.7-3.78,4.41-.02,8.83.09,13.24-.1,2.51-.11,3.29.67,3.28,3.23-.1,16.66-.05,33.32-.05,49.97Z"/>
      <path class="cls-1" d="M170.98,500.98c0,16.5,0,32.99,0,49.49,0,3.3-.04,3.33-3.37,3.32-4.58,0-9.17-.14-13.75,0-2.42.07-3.16-.8-3.15-3.17.07-15.66.04-31.33.04-46.99,0-17.33,0-34.66,0-51.99,0-3.49.03-3.5,3.45-3.52,4.08-.02,8.17-.03,12.25-.04q4.52-.01,4.53,4.41c0,16.16,0,32.33,0,48.49Z"/>
      <path class="cls-1" d="M90.37,500.98c0-16.5,0-32.99,0-49.49,0-3.33.02-3.35,3.31-3.37,4.5-.03,9-.04,13.5-.05,3.34,0,3.36,0,3.37,3.32.01,17.58,0,35.16,0,52.74,0,15.25,0,30.49,0,45.74,0,3.93-.01,3.93-4.03,3.92-4.17-.01-8.33-.02-12.5-.04q-3.63-.02-3.64-3.78c0-16.33,0-32.66,0-48.99Z"/>
      <path class="cls-1" d="M80.34,501.08c0,16.41,0,32.82,0,49.23,0,3.49-.02,3.5-3.43,3.49-4.58,0-9.17-.13-13.74,0-2.29.06-3.02-.74-3.01-3.02.08-15.33.04-30.65.04-45.98,0-17.66,0-35.32,0-52.98,0-3.66.01-3.67,3.75-3.69,4.08-.02,8.16-.03,12.25-.05q4.13-.02,4.15,4.02c0,15.16,0,30.32,0,45.48,0,1.17,0,2.33,0,3.5Z"/>
      <path class="cls-1" d="M30,501c0-16.41,0-32.81,0-49.22,0-3.64.01-3.64,3.75-3.66,4.33-.02,8.66-.04,12.99-.04,3.32,0,3.34,0,3.34,3.31,0,30.23,0,60.46,0,90.69,0,3.08-.07,6.16.02,9.24.05,1.82-.62,2.53-2.47,2.49-4.91-.09-9.83-.17-14.74-.03-2.38.07-2.94-.89-2.93-3.08.07-16.57.04-33.14.04-49.72Z"/>
      <path class="cls-1" d="M140.78,292.12c0,15.57,0,31.14,0,46.71,0,3.53-.09,3.61-3.69,3.6-4.5,0-8.99-.09-13.49-.03-2.15.03-3.11-.61-3.11-3.01.07-31.56.07-63.12,0-94.67,0-2.33.82-3.11,3.03-3.08,4.75.06,9.49.04,14.24-.06,2.23-.05,3.07.76,3.06,3.07-.08,15.82-.04,31.64-.04,47.46Z"/>
      <path class="cls-1" d="M201.17,292.07c0,15.65,0,31.3,0,46.95,0,3.36-.03,3.39-3.3,3.38-4.66-.02-9.33-.14-13.98-.04-2.31.05-2.99-.85-2.98-3.09.05-31.55.06-63.1,0-94.65,0-2.39.94-3,3.11-2.96,4.74.07,9.49.07,14.23-.09,2.32-.08,2.99.79,2.98,3.05-.08,15.82-.04,31.63-.04,47.45Z"/>
      <path class="cls-1" d="M170.97,292.27c0,15.57,0,31.15,0,46.72,0,3.32-.07,3.39-3.34,3.4-4.5.01-8.99,0-13.49-.04-3.29-.02-3.39-.11-3.39-3.37-.01-17.32,0-34.64,0-51.97,0-13.91,0-27.82,0-41.72,0-3.56.03-3.58,3.66-3.6,4.33-.03,8.66-.05,12.99-.06,3.53,0,3.57.03,3.57,3.67,0,15.66,0,31.31,0,46.97Z"/>
      <path class="cls-1" d="M231.34,292.04c0,15.65,0,31.3,0,46.95,0,3.36-.04,3.4-3.3,3.4-4.58,0-9.16-.13-13.73-.02-2.38.06-3.17-.81-3.16-3.19.07-17.56.04-35.13.04-52.69,0-13.74,0-27.47,0-41.21,0-3.49.07-3.55,3.43-3.58,4.49-.04,8.99.06,13.48-.12,2.49-.1,3.31.71,3.29,3.26-.1,15.73-.05,31.47-.05,47.2Z"/>
      <path class="cls-1" d="M110.55,292.26c0,15.24,0,30.48,0,45.72q0,4.44-4.56,4.43c-4.33-.02-8.66-.09-12.99-.05-1.87.02-2.65-.61-2.65-2.61.05-31.82.05-63.63,0-95.45,0-1.98.74-2.65,2.64-2.63,4.83.04,9.66.07,14.49-.1,2.46-.09,3.13.88,3.12,3.21-.07,15.82-.04,31.65-.04,47.47Z"/>
      <path class="cls-1" d="M80.34,292.01c0,15.66,0,31.31,0,46.97,0,3.42-.05,3.45-3.53,3.45-4.33-.01-8.66-.03-12.99-.07-3.61-.03-3.62-.04-3.63-3.61,0-28.4,0-56.79,0-85.19,0-3.08.08-6.17-.02-9.24-.07-1.97.73-2.66,2.63-2.64,4.83.04,9.66.08,14.49-.1,2.48-.09,3.1.91,3.09,3.22-.07,15.74-.04,31.48-.04,47.22Z"/>
      <path class="cls-1" d="M30,292.01c0-15.65,0-31.3,0-46.96,0-3.3.03-3.33,3.35-3.36,4.5-.04,9,.06,13.49-.11,2.48-.09,3.32.69,3.31,3.25-.1,16.65-.05,33.3-.05,49.95,0,14.65,0,29.31,0,43.96,0,3.67-.01,3.68-3.78,3.67-4.5-.01-8.99-.12-13.49-.03-2.18.04-2.87-.75-2.86-2.92.07-15.82.04-31.64.04-47.46Z"/>
      <path class="cls-1" d="M120.53,160.3c0-14.24,0-28.47,0-42.71,0-5.05,1.7-6.78,6.71-6.86,2.5-.04,5-.07,7.49-.01,4.09.09,5.86,1.89,6.02,6.03.03.75.02,1.5.02,2.25,0,27.81,0,55.62,0,83.43,0,4-.01,4.01-3.93,4-4.5-.01-8.99-.13-13.49,0-2.22.06-2.87-.77-2.86-2.9.07-14.4.03-28.81.03-43.21Z"/>
      <path class="cls-1" d="M170.97,172.77c0,10.16-.07,20.32.05,30.48.03,2.56-.83,3.32-3.32,3.22-4.74-.19-9.49-.14-14.24-.07-1.86.03-2.74-.52-2.73-2.53.04-20.74,0-41.47.05-62.21,0-3.76,2.02-5.65,5.77-5.74,2.75-.07,5.5-.06,8.24-.04,4.12.04,6.13,1.99,6.15,6.16.05,10.24.02,20.49.02,30.73Z"/>
      <path class="cls-1" d="M201.17,185.36c0,6.08-.06,12.16.03,18.24.03,2.16-.7,2.93-2.9,2.86-4.91-.15-9.83-.14-14.74-.06-1.95.03-2.64-.69-2.64-2.62.05-12.25,0-24.49.05-36.74.02-4.09,1.92-5.84,6.07-5.91,2.5-.04,5-.04,7.5-.03,4.41.02,6.6,2.15,6.62,6.51.02,5.91,0,11.83,0,17.75Z"/>
      <path class="cls-1" d="M55.13,45.43c-7.42,0-14.83-.06-22.25.04-2.21.03-3.18-.54-3.05-2.93.18-3.32.1-6.66.03-10-.03-1.64.47-2.42,2.27-2.42,15.33.04,30.66.04,45.99,0,1.78,0,2.34.76,2.32,2.4-.05,3.5-.06,7,0,10.5.04,1.85-.76,2.44-2.56,2.43-7.58-.07-15.16-.03-22.75-.03Z"/>
      <path class="cls-1" d="M201.16,600.22c0,2.66.03,5.32,0,7.98-.06,3.71-2.32,5.97-6.06,6.02-2.91.04-5.82.05-8.73-.06-3.11-.12-5.25-2.04-5.33-5.15-.16-5.98-.05-11.97-.07-17.96,0-1.38.69-1.92,2.02-1.92,5.4,0,10.81-.03,16.21-.09,1.57-.02,1.99.81,1.98,2.19-.03,2.99,0,5.99,0,8.98Z"/>
      <path class="cls-1" d="M140.75,600.15c0,2.83.09,5.66-.02,8.49-.14,3.67-2,5.48-5.66,5.57-2.99.07-5.99.06-8.99-.03-3.32-.11-5.46-2.2-5.52-5.53-.09-5.74,0-11.48-.05-17.22-.02-1.74.76-2.33,2.42-2.32,5.16.03,10.32.02,15.48-.06,1.73-.03,2.39.7,2.36,2.38-.05,2.91-.01,5.82-.01,8.74h-.01Z"/>
      <path class="cls-1" d="M231.33,600.17c0,2.83.05,5.66-.01,8.49-.08,3.49-1.95,5.44-5.4,5.54-3.16.09-6.33.08-9.48-.05-3.17-.12-5.09-1.86-5.16-4.95-.15-5.99-.05-11.98-.07-17.97,0-1.45.64-2.11,2.11-2.11,5.32,0,10.65-.02,15.97-.06,1.48-.01,2.09.65,2.06,2.12-.05,2.99-.01,5.99-.02,8.99Z"/>
      <path class="cls-1" d="M90.38,599.98c0-2.91.03-5.82-.02-8.73-.02-1.47.58-2.12,2.06-2.12,5.32,0,10.64-.02,15.96-.07,1.46-.01,2.14.59,2.14,2.07-.02,5.99.08,11.97-.06,17.96-.07,3.21-2.03,5.01-5.28,5.11-3.16.1-6.32.08-9.48-.04-3.17-.12-5.21-2.24-5.31-5.45-.09-2.91-.02-5.82-.02-8.73Z"/>
      <path class="cls-1" d="M170.95,600.15c0,2.83.07,5.66-.02,8.48-.12,3.63-2,5.48-5.64,5.57-2.99.08-5.99.06-8.98-.03-3.35-.11-5.45-2.12-5.51-5.51-.11-5.74-.01-11.47-.06-17.21-.01-1.72.73-2.35,2.41-2.34,5.16.03,10.31,0,15.47-.06,1.71-.02,2.4.68,2.36,2.37-.06,2.91-.02,5.82-.02,8.73Z"/>
      <path class="cls-1" d="M50.07,600.23c0,2.83.07,5.65-.02,8.48-.1,3.37-2.13,5.42-5.48,5.5-3.07.08-6.15.07-9.22-.04-3.38-.12-5.26-1.97-5.31-5.32-.08-5.82,0-11.63-.06-17.45-.02-1.78.78-2.29,2.42-2.28,5.07.03,10.14.02,15.21-.07,1.8-.03,2.56.62,2.5,2.46-.09,2.91-.03,5.82-.03,8.72h-.01Z"/>
      <path class="cls-1" d="M60.21,600.2c0-2.91.05-5.83-.02-8.74-.04-1.72.69-2.36,2.37-2.35,5.16.03,10.32.01,15.48-.08,1.77-.03,2.33.75,2.31,2.4-.05,5.74.05,11.49-.06,17.23-.06,3.66-1.97,5.47-5.64,5.55-2.99.07-5.99.05-8.99-.04-3.52-.12-5.35-1.96-5.44-5.48-.07-2.83-.01-5.66-.02-8.49Z"/>
      <path class="cls-1" d="M40.07,20.1c-2.66,0-5.33-.03-7.99.01-1.47.03-2.11-.56-2.09-2.06.05-4.33-.05-8.66.06-12.99.08-2.95,1.96-4.84,4.88-4.95,3.41-.12,6.83-.14,10.24-.03,2.84.09,4.74,1.91,4.83,4.72.14,4.49.04,8.99.08,13.49.01,1.43-.71,1.89-2.01,1.88-2.66-.02-5.33,0-7.99,0v-.06Z"/>
      <path class="cls-1" d="M70.15,20.08c-2.67,0-5.33-.01-8,0-1.34,0-1.97-.56-1.95-1.95.04-4.41-.06-8.83.07-13.24.08-2.81,1.98-4.67,4.78-4.79,3.41-.14,6.83-.15,10.24-.04,2.95.09,4.85,1.9,4.95,4.89.16,4.41.04,8.83.08,13.24.01,1.55-.77,2.01-2.18,1.98-2.66-.05-5.33-.01-8-.01,0-.03,0-.06,0-.08Z"/>
      <path class="cls-1" d="M221.13,206.37c-2.5,0-4.99-.05-7.49.02-1.66.05-2.47-.56-2.45-2.3.05-4.16-.07-8.32.05-12.48.1-3.39,1.96-5.16,5.38-5.26,3.08-.1,6.16-.11,9.23-.04,3.47.08,5.4,2.01,5.46,5.47.08,4.16-.02,8.32.04,12.48.02,1.63-.67,2.22-2.24,2.18-2.66-.06-5.32-.02-7.99-.02v-.05Z"/>
    </g>
  </g>
</svg>