<svg id="Layer_2" data-name="Layer 2" xmlns="http://www.w3.org/2000/svg" viewBox="0 0 27.78 27.78"><defs><style>.cls-1{fill:#45589c;stroke:#45589c;stroke-linecap:square;stroke-linejoin:round;stroke-width:.1px}</style></defs><g id="Layer_2-2" data-name="Layer 2"><circle cx="13.89" cy="13.89" r="13.64" style="fill:#c6ae73;opacity:.8;stroke:#638962;stroke-miterlimit:10;stroke-width:.5px"/><path class="cls-1" d="M17.54 7.74c.06.01.12.05.15.11a.263.263 0 0 0-.2-.18.29.29 0 0 0-.24.05c.04-.02.09-.02.13-.01l.15.03ZM17.99 8.39h-.03c.14.03.22.16.21.3h0a.247.247 0 0 0-.18-.3ZM15.37.73h-.04a.228.228 0 0 0-.29.17v.04a.27.27 0 0 1 .33-.21ZM17.23 7.23h0a.247.247 0 0 0-.18-.3h-.02c.13.04.21.16.2.3ZM16.8 6.42a.245.245 0 0 0-.19-.2h0c.09.03.16.11.19.2ZM15.47 4.32V4.3a.241.241 0 0 0-.18-.29h0c.13.05.2.17.19.31ZM15.22 4h-.02a.239.239 0 0 0-.28.15v.06c.02-.14.16-.23.3-.21ZM15.84 5.61c.04-.06.11-.1.18-.11-.07 0-.14.05-.18.11ZM16.05 5.5h.04-.04ZM17.96 8.38h-.01.01zM18.17 8.73v-.04l-.02.07s.01-.02.02-.03ZM17.22 7.27v-.04l-.02.07s.01-.02.02-.03ZM17.01 6.92h-.02.04-.02ZM16.59 6.21h-.03.06-.03ZM16.77 6.64s.03-.05.04-.08c.01-.05 0-.09 0-.14v.09l-.03.13ZM15.84 5.61s-.04.07-.05.11v.06l.02-.1s.02-.05.03-.07ZM16.09 5.5l.07.02s-.02-.01-.03-.01h-.04ZM15.92 5.16v-.05l-.02.09s.02-.03.02-.04ZM15.47 4.35v-.03.05-.02Z"/><path class="cls-1" d="M15.26 4h-.04l.07.02s-.02-.01-.03-.01ZM14.91 4.22h0v-.01.01zM15.38.73h-.01.02-.01zM15.03.95h0zM16.95 6.92s-.04 0-.07.01h.1-.03Z"/><path class="cls-1" d="M17.82 8.94a.296.296 0 0 1-.22-.35c.04-.15.19-.25.34-.22h-.05a.228.228 0 0 0-.29.17l-2.16 9.62s-.01 0-.02-.01l2.29-10.13c.01-.07 0-.13-.03-.18.02.05.03.11.02.17-.04.16-.19.25-.35.22a.296.296 0 0 1-.22-.35c.02-.07.06-.13.11-.17-.08.03-.14.09-.16.17l-2.27 10.03h-.01l2.4-10.6c-.05.14-.19.22-.33.18a.296.296 0 0 1-.22-.35.28.28 0 0 1 .21-.21c-.09.01-.18.06-.21.16l-2.41 10.65s0 0 0 0L16.65 7.1s0 0 0 0l.1-.45c-.06.11-.19.17-.31.14a.296.296 0 0 1-.22-.35.28.28 0 0 1 .32-.22h-.04a.218.218 0 0 0-.26.12l-2.56 11.28h-.01L16.21 6.4l.03-.06.12-.51a.241.241 0 0 0-.18-.29h-.02c.14.05.22.19.19.33-.04.16-.19.25-.35.22-.14-.03-.22-.15-.22-.29l-2.66 11.74h-.02l2.79-12.31c-.05.13-.19.21-.33.17a.296.296 0 0 1-.22-.35c.04-.16.19-.25.35-.22.14.03.23.16.22.3v-.02a.241.241 0 0 0-.18-.29l-.09-.02a.241.241 0 0 0-.29.18l-2.83 12.51h-.03l2.97-13.11c-.05.14-.19.23-.34.19a.299.299 0 0 1-.22-.34l-3 13.26s0 0 0 0l3.01-13.31s0-.02.01-.02l.71-3.12a.241.241 0 0 0-.18-.29h-.05c.15.03.25.18.21.33-.04.16-.19.25-.35.22a.296.296 0 0 1-.22-.35l-3.76 16.58c-.42.06-.77.15-.98.29-.01 0-.02.01-.03.02a.27.27 0 0 0-.08.07c-.07.06-.12.12-.13.2-.07.29.3.68.86 1.04l-1.43 6.3c-.03.13.05.26.18.29l.11.03c.13.03.26-.05.29-.18v-.02l1.38-6.1s0 0 0 0l-1.39 6.11s0 0 0 0c-.02.12.06.24.18.27l.09.02c.13.03.26-.05.29-.18l1.35-5.96s.02 0 .02.01l-1.36 5.98c-.03.13.05.26.18.29l.09.02c.13.03.26-.05.29-.18l1.33-5.88h.01l-1.34 5.89c-.03.13.05.26.18.29l.09.02c.12.03.23-.04.28-.15v-.03l1.32-5.84h.01l-1.32 5.84s0 .02-.01.03c-.01.12.06.23.18.26l.09.02c.13.03.25-.05.29-.17l1.32-5.83s0 0 0 0l-1.32 5.82s0 0 0 0h0c-.03.13.05.26.18.29l.09.02c.13.03.26-.05.29-.18l1.33-5.86h.02l-1.33 5.86c-.03.13.05.26.18.29l.15.03c.13.03.26-.05.29-.18l1.34-5.94h.03l-1.34 5.95c-.03.13.05.26.18.29l.09.02c.13.03.26-.05.29-.18l1.36-6.07c.21 0 .41-.02.58-.04v-.01h.03c0-.01-.02-.03-.03-.05.02.02.04.05.06.05.05.01.1 0 .15-.05.15-.09.3-.36.39-.7.1-.45.04-.84-.14-.88-.05-.01-.1 0-.15.05-.15.09-.3.36-.39.7-.05.21-.06.41-.04.57 0-.02-.01-.03-.02-.05-.02-.07-.02-.13-.02-.17 0-.01-.01-.21.03-.4.1-.41.44-.69.52-.74-.15-.1-.32-.21-.51-.32l2.18-9.68c-.05.13-.19.22-.33.18Zm-2.49 8.23c.08.02.12.09.1.17-.02.08-.09.12-.17.1-.08-.02-.12-.09-.1-.17.02-.08.09-.12.17-.1Zm-.61-.14c.08.02.12.09.1.17-.02.08-.09.12-.17.1-.08-.02-.12-.09-.1-.17s.09-.12.17-.1Zm-.57-.13c.08.02.12.09.1.17s-.09.12-.17.1c-.08-.02-.12-.09-.1-.17.02-.08.09-.12.17-.1Zm-1.14-.26c.08.02.12.09.1.17-.02.08-.09.12-.17.1s-.12-.09-.1-.17.09-.12.17-.1Zm-1.18-.25c.08.02.12.09.1.17-.02.08-.09.12-.17.1-.08-.02-.12-.09-.1-.17.02-.08.09-.12.17-.1Zm1.75.37c.08.02.12.09.1.17-.02.08-.09.12-.17.1-.08-.02-.12-.09-.1-.17s.09-.12.17-.1Zm-1.16-.25c.08.02.12.09.1.17s-.09.12-.17.1c-.08-.02-.12-.09-.1-.17s.09-.12.17-.1Zm3.45 1.07c-.08-.02-.12-.09-.1-.17.02-.08.09-.12.17-.1.08.02.12.09.1.17-.02.08-.09.12-.17.1ZM16.87 6.93h.01-.01ZM9.79 18.3c.1.02.21-.06.24-.19s-.03-.25-.13-.27c-.1-.02-.21.06-.24.19s.03.25.13.27Z"/></g></svg>