<?xml version="1.0" encoding="UTF-8"?>
<svg id="Layer_2" data-name="Layer 2" xmlns="http://www.w3.org/2000/svg" viewBox="0 0 27.78 27.78">
  <defs>
    <style>
      .cls-1 {
        fill: #45589c;
        stroke: #45589c;
        stroke-linecap: square;
        stroke-linejoin: round;
        stroke-width: .1px;
      }

      .cls-2 {
        fill: #c6ae73;
        opacity: .8;
        stroke: #638962;
        stroke-miterlimit: 10;
        stroke-width: .5px;
      }
    </style>
  </defs>
  <g id="Layer_2-2" data-name="Layer 2">
    <g>
      <circle class="cls-2" cx="13.89" cy="13.89" r="13.64"/>
      <g>
        <path class="cls-1" d="M17.54,7.74c.06.01.12.05.15.11-.03-.09-.1-.16-.2-.18-.09-.02-.17,0-.24.05.04-.02.09-.02.13-.01l.15.03Z"/>
        <path class="cls-1" d="M17.99,8.39h-.03c.14.03.22.16.21.3h0c.03-.14-.05-.27-.18-.3Z"/>
        <path class="cls-1" d="M15.37.73h-.04c-.13-.04-.26.04-.29.17v.04c.03-.15.18-.25.33-.21Z"/>
        <path class="cls-1" d="M17.23,7.23h0c.03-.14-.05-.27-.18-.3h-.02c.13.04.21.16.2.3Z"/>
        <path class="cls-1" d="M16.8,6.42c-.02-.1-.09-.18-.19-.2h0c.09.03.16.11.19.2Z"/>
        <path class="cls-1" d="M15.47,4.32v-.02c.03-.13-.05-.26-.18-.29h0c.13.05.2.17.19.31Z"/>
        <path class="cls-1" d="M15.22,4h-.02c-.12-.03-.24.04-.28.15v.06c.02-.14.16-.23.3-.21Z"/>
        <path class="cls-1" d="M15.84,5.61c.04-.06.11-.1.18-.11-.07,0-.14.05-.18.11Z"/>
        <path class="cls-1" d="M16.05,5.5s.03,0,.04,0h0s-.03,0-.04,0Z"/>
        <polygon class="cls-1" points="17.96 8.38 17.95 8.38 17.96 8.38 17.96 8.38"/>
        <path class="cls-1" d="M18.17,8.73s0-.03,0-.04l-.02.07s.01-.02.02-.03Z"/>
        <path class="cls-1" d="M17.22,7.27s0-.03,0-.04l-.02.07s.01-.02.02-.03Z"/>
        <path class="cls-1" d="M17.01,6.92s-.01,0-.02,0h.04s-.01,0-.02,0Z"/>
        <path class="cls-1" d="M16.59,6.21s-.02,0-.03,0h.06s-.02,0-.03,0Z"/>
        <path class="cls-1" d="M16.77,6.64s.03-.05.04-.08c.01-.05,0-.09,0-.14,0,.03,0,.06,0,.09l-.03.13Z"/>
        <path class="cls-1" d="M15.84,5.61s-.04.07-.05.11c0,.02,0,.04,0,.06l.02-.1s.02-.05.03-.07Z"/>
        <path class="cls-1" d="M16.09,5.5l.07.02s-.02-.01-.03-.01c-.01,0-.03,0-.04,0Z"/>
        <path class="cls-1" d="M15.92,5.16s0-.03,0-.05l-.02.09s.02-.03.02-.04Z"/>
        <path class="cls-1" d="M15.47,4.35s0-.02,0-.03v.05s0-.01,0-.02Z"/>
        <path class="cls-1" d="M15.26,4s-.03,0-.04,0l.07.02s-.02-.01-.03-.01Z"/>
        <polygon class="cls-1" points="14.91 4.22 14.91 4.22 14.91 4.21 14.91 4.22"/>
        <polygon class="cls-1" points="15.38 .73 15.37 .73 15.39 .73 15.38 .73"/>
        <polygon class="cls-1" points="15.03 .95 15.03 .95 15.03 .95 15.03 .95"/>
        <path class="cls-1" d="M16.95,6.92s-.04,0-.07.01c.03,0,.07,0,.1,0h-.03Z"/>
        <path class="cls-1" d="M17.82,8.94c-.16-.04-.25-.19-.22-.35.04-.15.19-.25.34-.22h-.05c-.13-.04-.26.04-.29.17l-2.16,9.62s-.01,0-.02-.01l2.29-10.13c.01-.07,0-.13-.03-.18.02.05.03.11.02.17-.04.16-.19.25-.35.22-.16-.04-.25-.19-.22-.35.02-.07.06-.13.11-.17-.08.03-.14.09-.16.17l-2.27,10.03s0,0-.01,0l2.4-10.6c-.05.14-.19.22-.33.18-.16-.04-.25-.19-.22-.35.03-.11.11-.19.21-.21-.09.01-.18.06-.21.16l-2.41,10.65s0,0,0,0l2.41-10.64s0,0,0,0l.1-.45c-.06.11-.19.17-.31.14-.16-.04-.25-.19-.22-.35.03-.15.17-.24.32-.22h-.04c-.11-.03-.21.02-.26.12l-2.56,11.28s0,0-.01,0l2.54-11.22s.02-.04.03-.06l.12-.51c.03-.13-.05-.26-.18-.29h-.02c.14.05.22.19.19.33-.04.16-.19.25-.35.22-.14-.03-.22-.15-.22-.29l-2.66,11.74s-.01,0-.02,0l2.79-12.31c-.05.13-.19.21-.33.17-.16-.04-.25-.19-.22-.35.04-.16.19-.25.35-.22.14.03.23.16.22.3v-.02c.03-.13-.05-.26-.18-.29l-.09-.02c-.13-.03-.26.05-.29.18l-2.83,12.51s-.02,0-.03,0l2.97-13.11c-.05.14-.19.23-.34.19-.15-.04-.25-.19-.22-.34l-3,13.26s0,0,0,0l3.01-13.31s0-.02.01-.02l.71-3.12c.03-.13-.05-.26-.18-.29h-.05c.15.03.25.18.21.33-.04.16-.19.25-.35.22-.16-.04-.25-.19-.22-.35l-3.76,16.58c-.42.06-.77.15-.98.29-.01,0-.02.01-.03.02-.03.02-.06.04-.08.07-.07.06-.12.12-.13.2-.07.29.3.68.86,1.04l-1.43,6.3c-.03.13.05.26.18.29l.11.03c.13.03.26-.05.29-.18,0,0,0-.01,0-.02l1.38-6.1s0,0,0,0l-1.39,6.11s0,0,0,0c-.02.12.06.24.18.27l.09.02c.13.03.26-.05.29-.18l1.35-5.96s.02,0,.02.01l-1.36,5.98c-.03.13.05.26.18.29l.09.02c.13.03.26-.05.29-.18l1.33-5.88s0,0,.01,0l-1.34,5.89c-.03.13.05.26.18.29l.09.02c.12.03.23-.04.28-.15,0,0,0-.02,0-.03l1.32-5.84s0,0,.01,0l-1.32,5.84s0,.02-.01.03c-.01.12.06.23.18.26l.09.02c.13.03.25-.05.29-.17l1.32-5.83s0,0,0,0l-1.32,5.82s0,0,0,0h0c-.03.13.05.26.18.29l.09.02c.13.03.26-.05.29-.18l1.33-5.86s.01,0,.02,0l-1.33,5.86c-.03.13.05.26.18.29l.15.03c.13.03.26-.05.29-.18l1.34-5.94s.02,0,.03,0l-1.34,5.95c-.03.13.05.26.18.29l.09.02c.13.03.26-.05.29-.18l1.36-6.07c.21,0,.41-.02.58-.04,0,0,0,0,0-.01,0,0,.02,0,.03,0,0-.01-.02-.03-.03-.05.02.02.04.05.06.05.05.01.1,0,.15-.05.15-.09.3-.36.39-.7.1-.45.04-.84-.14-.88-.05-.01-.1,0-.15.05-.15.09-.3.36-.39.7-.05.21-.06.41-.04.57,0-.02-.01-.03-.02-.05-.02-.07-.02-.13-.02-.17,0-.01-.01-.21.03-.4.1-.41.44-.69.52-.74-.15-.1-.32-.21-.51-.32l2.18-9.68c-.05.13-.19.22-.33.18ZM15.33,17.17c.08.02.12.09.1.17-.02.08-.09.12-.17.1-.08-.02-.12-.09-.1-.17.02-.08.09-.12.17-.1ZM14.72,17.03c.08.02.12.09.1.17-.02.08-.09.12-.17.1-.08-.02-.12-.09-.1-.17s.09-.12.17-.1ZM14.15,16.9c.08.02.12.09.1.17s-.09.12-.17.1c-.08-.02-.12-.09-.1-.17.02-.08.09-.12.17-.1ZM13.01,16.64c.08.02.12.09.1.17-.02.08-.09.12-.17.1s-.12-.09-.1-.17.09-.12.17-.1ZM11.83,16.39c.08.02.12.09.1.17-.02.08-.09.12-.17.1-.08-.02-.12-.09-.1-.17.02-.08.09-.12.17-.1ZM13.58,16.76c.08.02.12.09.1.17-.02.08-.09.12-.17.1-.08-.02-.12-.09-.1-.17s.09-.12.17-.1ZM12.42,16.51c.08.02.12.09.1.17s-.09.12-.17.1c-.08-.02-.12-.09-.1-.17s.09-.12.17-.1ZM15.87,17.58c-.08-.02-.12-.09-.1-.17.02-.08.09-.12.17-.1.08.02.12.09.1.17-.02.08-.09.12-.17.1Z"/>
        <path class="cls-1" d="M16.87,6.93s0,0,.01,0c0,0,0,0-.01,0Z"/>
        <path class="cls-1" d="M9.79,18.3c.1.02.21-.06.24-.19.03-.13-.03-.25-.13-.27-.1-.02-.21.06-.24.19-.03.13.03.25.13.27Z"/>
      </g>
    </g>
  </g>
</svg>