<?xml version="1.0" encoding="UTF-8"?>
<svg id="Layer_2" data-name="Layer 2" xmlns="http://www.w3.org/2000/svg" viewBox="0 0 12.74 37.07">
  <defs>
    <style>
      .cls-1 {
        fill: none;
        stroke: #455a97;
        stroke-linecap: square;
        stroke-linejoin: round;
        stroke-width: .5px;
      }
    </style>
  </defs>
  <g id="Layer_2-2" data-name="Layer 2">
    <g>
      <g>
        <path class="cls-1" d="M9.37,27.45c-.02-.1-.03-.18-.03-.23,0-.02-.02-.29.04-.56.14-.58.62-.97.73-1.05-.82-.56-2.17-1.32-3.97-1.64-2.06-.36-4.85-.16-5.05.7-.2.86,2.27,2.26,4.22,2.87,1.74.54,3.29.52,4.29.42-.08-.11-.17-.28-.22-.5Z"/>
        <path class="cls-1" d="M10.21,25.68c-.25-.06-.58.4-.73,1.03s-.06,1.18.2,1.24.58-.4.73-1.03.06-1.18-.2-1.24Z"/>
      </g>
      <g>
        <path class="cls-1" d="M11.58,10.12c.09.02.16.08.21.15-.05-.12-.14-.22-.28-.25-.12-.03-.24,0-.33.07.06-.02.12-.03.19-.02l.21.05Z"/>
        <path class="cls-1" d="M12.48,11.45h0c.04-.2-.07-.38-.26-.42h-.04c.2.04.32.22.3.42Z"/>
        <path class="cls-1" d="M8.54.27h-.06c-.18-.05-.37.06-.41.24v.06c.04-.21.25-.35.46-.3Z"/>
        <path class="cls-1" d="M11.14,9.41h0c.04-.19-.07-.38-.26-.42h-.03c.18.05.3.23.28.42Z"/>
        <path class="cls-1" d="M10.54,8.26c-.02-.13-.12-.25-.26-.28h0c.13.04.23.15.26.28Z"/>
        <path class="cls-1" d="M8.68,5.32v-.02c.05-.18-.07-.37-.25-.41h0c.18.06.29.24.26.43Z"/>
        <path class="cls-1" d="M8.32,4.86h-.02c-.17-.04-.34.06-.39.22l-.02.08c.05-.2.24-.32.43-.3Z"/>
        <path class="cls-1" d="M9.44,6.98c-.1.01-.2.07-.25.15.06-.08.15-.14.25-.15Z"/>
        <path class="cls-1" d="M9.49,6.98s.04,0,.06,0h0s-.04,0-.06,0Z"/>
        <polygon class="cls-1" points="12.17 11.02 12.16 11.02 12.18 11.02 12.17 11.02"/>
        <path class="cls-1" d="M12.47,11.51s0-.04,0-.06l-.02.1s.02-.03.02-.05Z"/>
        <path class="cls-1" d="M11.14,9.47s0-.04,0-.06l-.02.1s.02-.03.02-.05Z"/>
        <path class="cls-1" d="M10.83,8.98s-.02,0-.03,0h.06s-.02,0-.03,0Z"/>
        <path class="cls-1" d="M10.24,7.97s-.03,0-.04,0l.08.02s-.02-.01-.04-.02Z"/>
        <path class="cls-1" d="M10.5,8.57s.04-.07.05-.11c.02-.07,0-.13,0-.2,0,.04,0,.08,0,.13l-.04.18Z"/>
        <path class="cls-1" d="M9.19,7.13s-.06.1-.08.16c0,.03,0,.06,0,.09l.03-.14s.03-.07.05-.1Z"/>
        <path class="cls-1" d="M9.55,6.98l.1.02s-.03-.02-.05-.02c-.02,0-.04,0-.05,0Z"/>
        <path class="cls-1" d="M9.3,6.5s0-.05,0-.07l-.03.13s.02-.04.03-.06Z"/>
        <path class="cls-1" d="M8.68,5.36s0-.03,0-.04l-.02.07s.01-.02.02-.03Z"/>
        <path class="cls-1" d="M8.37,4.86s-.04,0-.05,0l.1.02s-.03-.02-.05-.02Z"/>
        <polygon class="cls-1" points="7.88 5.17 7.88 5.18 7.89 5.16 7.88 5.17"/>
        <path class="cls-1" d="M8.55.27s0,0-.01,0h.02s0,0-.01,0Z"/>
        <polygon class="cls-1" points="8.06 .58 8.06 .58 8.06 .57 8.06 .58"/>
        <path class="cls-1" d="M9.34,27.47c-.02-.1-.03-.18-.03-.23,0-.02-.02-.29.04-.56.14-.58.62-.97.73-1.05-.2-.14-.43-.28-.69-.43l3.07-13.64c-.07.19-.27.31-.47.26-.22-.05-.36-.27-.31-.49s.27-.35.48-.31l-.07-.02c-.18-.04-.37.07-.41.26l-3.05,13.55s-.02-.01-.03-.01l3.23-14.26c.02-.09,0-.18-.05-.26.03.08.05.16.03.24-.05.22-.27.36-.49.31s-.36-.27-.31-.49c.02-.1.08-.18.16-.23-.11.04-.19.12-.22.24l-3.2,14.11s-.01,0-.02,0l3.38-14.92c-.07.19-.27.31-.47.26-.22-.05-.36-.27-.31-.49s.25-.34.46-.31h-.05c-.18-.05-.36.06-.4.23l-3.39,14.98s0,0,0,0l3.39-14.97s0,0,0-.01l.14-.64c-.09.15-.26.24-.44.19-.22-.05-.36-.27-.31-.49.05-.21.24-.33.45-.31h-.05c-.15-.05-.3.03-.37.17l-3.6,15.88s-.01,0-.02,0l3.58-15.79s.02-.05.04-.08l.16-.72c.04-.18-.07-.37-.26-.41h-.03c.19.06.31.26.26.46-.05.22-.27.36-.49.31-.19-.04-.31-.22-.31-.41l-3.74,16.52s-.01,0-.02,0l3.93-17.33c-.08.18-.27.29-.46.24-.22-.05-.36-.27-.31-.49s.27-.36.49-.31c.2.05.32.23.31.42v-.02c.05-.18-.07-.37-.25-.41l-.13-.03c-.18-.04-.37.07-.41.26l-3.99,17.61s-.02,0-.04,0L8.66,5.39c-.07.2-.27.32-.48.27s-.35-.26-.31-.48L3.66,23.83s0,0,0,0L7.89,5.11s.01-.02.02-.03l.99-4.38c.04-.18-.07-.37-.26-.41l-.08-.02c.21.06.34.27.29.49s-.27.36-.49.31-.35-.27-.31-.49L2.78,23.9c-.24.03-.47.07-.67.12h0s0,0,0,0c-.57.14-.98.36-1.05.67-.1.41.43.95,1.21,1.46L.26,35.02c-.04.18.07.37.26.41l.16.04c.18.04.36-.07.4-.25,0,0,0-.02,0-.03l1.94-8.57s0,0,0,0l-1.95,8.59s0,0,0,0c-.02.17.08.34.26.38l.13.03c.18.04.37-.07.41-.26l1.9-8.38s.02,0,.03.01l-1.9,8.41c-.04.18.07.37.26.41l.13.03c.18.04.37-.07.41-.26l1.87-8.27s.01,0,.02,0l-1.88,8.28c-.04.18.07.37.26.41l.13.03c.17.04.33-.06.39-.21,0-.01,0-.03,0-.04l1.86-8.21s.01,0,.02,0l-1.86,8.2s-.01.03-.02.04c-.02.17.09.33.26.37l.13.03c.18.04.36-.07.4-.25l1.86-8.2s0,0,0,0l-1.85,8.18s0,0,0,.01h0c-.04.19.07.37.26.41l.13.03c.18.04.37-.07.41-.26l1.87-8.23s.01,0,.02,0l-1.86,8.23c-.04.18.07.37.26.41l.21.05c.18.04.37-.07.41-.26l1.89-8.34s.03,0,.04,0l-1.88,8.36c-.04.18.07.37.26.41l.13.03c.18.04.37-.07.41-.26l1.92-8.53c.3,0,.57-.03.82-.05-.08-.11-.17-.28-.22-.5ZM9.33,23.56c.11.02.17.13.15.24s-.13.17-.24.15-.17-.13-.15-.24.13-.17.24-.15ZM8.48,23.37c.11.02.17.13.15.24s-.13.17-.24.15-.17-.13-.15-.24.13-.17.24-.15ZM7.62,23.18c.11.02.17.13.15.24s-.13.17-.24.15-.17-.13-.15-.24.13-.17.24-.15ZM5.21,22.63c.11.02.17.13.15.24s-.13.17-.24.15-.17-.13-.15-.24.13-.17.24-.15ZM4.38,22.45c.11.02.17.13.15.24s-.13.17-.24.15-.17-.13-.15-.24.13-.17.24-.15ZM3.57,22.27c.11.02.17.13.15.24s-.13.17-.24.15-.17-.13-.15-.24.13-.17.24-.15ZM6.02,22.8c.11.02.17.13.15.24s-.13.17-.24.15-.17-.13-.15-.24.13-.17.24-.15ZM6.82,22.99c.11.02.17.13.15.24s-.13.17-.24.15-.17-.13-.15-.24.13-.17.24-.15Z"/>
        <path class="cls-1" d="M10.18,25.7c-.25-.06-.58.4-.73,1.03s-.06,1.18.2,1.24.58-.4.73-1.03.06-1.18-.2-1.24Z"/>
        <path class="cls-1" d="M.85,24.32c-.14-.03-.29.08-.33.26s.04.35.18.38.29-.08.33-.26-.04-.35-.18-.38Z"/>
      </g>
    </g>
  </g>
</svg>