<?xml version="1.0" encoding="UTF-8"?>
<svg id="Layer_2" data-name="Layer 2" xmlns="http://www.w3.org/2000/svg" viewBox="0 0 90.18 90.18">
  <defs>
    <style>
      .cls-1 {
        fill: #b8424c;
        stroke-width: .3px;
      }

      .cls-1, .cls-2, .cls-3 {
        stroke: #638962;
        stroke-miterlimit: 10;
      }

      .cls-2 {
        fill: #c6ae73;
      }

      .cls-2, .cls-3 {
        stroke-width: .5px;
      }

      .cls-3 {
        fill: #45589c;
      }
    </style>
  </defs>
  <g id="Layer_2-2" data-name="Layer 2">
    <g>
      <circle class="cls-2" cx="45.09" cy="45.09" r="44.84"/>
      <g>
        <polygon class="cls-1" points="43.44 48.21 45.23 48.31 44.36 63.26 39.65 62.82 43.51 49.28 43.44 48.21"/>
        <path class="cls-3" d="M42.18,13.26l-3.69.63-2.85-2.64-.32,3.16-2.53-2.74-.63,4.85-3.9,4.22-1.69-1.37-1.37,4.43-.74,2.32,3.06,3.06,7.8-5.59,1.05,12.86-3.37,10.75,1.26,10.65.95,14.23,1.16,2.85,7.38.53.42-14.02v-4.74l1.9,5.69,1.26,4.53-.21,8.75,2.32,2.32,5.96-1.85.57-17.54.42-11.07-1.48-13.18-.11-3.16,7.48-3.06-4.53-8.33-.74-3.79v-2.64s-2.64,2.74-2.64,3.06-1.16-4.32-1.16-4.32l-1.9,2.64-2-.84-.95-.95-6.22.32Z"/>
        <polygon class="cls-3" points="44.35 48.79 45.31 58.87 49.82 58.21 46.2 48.72 44.35 48.79"/>
        <polygon class="cls-3" points="34.17 43.39 32.91 47.13 33.28 49.61 56.47 49.72 56.42 47.29 56.05 45.13 34.17 43.39"/>
        <polygon class="cls-3" points="45.47 49.29 44.72 59.38 41.22 58.71 44.03 49.22 45.47 49.29"/>
        <rect class="cls-3" x="42.62" y="43.6" width="5.13" height="6.44" rx="1.43" ry="1.43"/>
      </g>
    </g>
  </g>
</svg>