<?xml version="1.0" encoding="UTF-8"?>
<svg id="Layer_2" data-name="Layer 2" xmlns="http://www.w3.org/2000/svg" viewBox="0 0 90.18 90.18">
  <defs>
    <style>
      .cls-1 {
        fill: #c6ae73;
        stroke: #638962;
        stroke-miterlimit: 10;
        stroke-width: .5px;
      }

      .cls-2 {
        fill: #45589c;
        stroke: #45589c;
        stroke-linecap: square;
        stroke-linejoin: round;
        stroke-width: .1px;
      }
    </style>
  </defs>
  <g id="Layer_3" data-name="Layer 3">
    <g>
      <circle class="cls-1" cx="45.09" cy="45.09" r="44.84"/>
      <path class="cls-2" d="M43.36,8.87c1.38.71,2.79,1.36,4.12,2.14.71.41,1.5.91,1.91,1.58,1.37,2.2,3.04,4.36,3.73,6.78.61,2.12.19,4.59-.04,6.87-.17,1.66-.86,3.27-1.16,4.93-.14.77.08,1.61.19,2.41.12.91.59,1.88.39,2.7-1.02,4.11-.94,8.19-.13,12.33,2.17-1.24,4.4-2.36,6.43-3.77.81-.57,1.24-1.75,1.72-2.71.71-1.46,1.24-3.01,1.99-4.45.51-.99,1.35-1.17,2.17-.24,2.51,2.84,4.03,6.08,3.85,9.95-.03.57-.24,1.13-.4,1.69-1.03,3.53-2.59,7-2.97,10.59-.5,4.67-2.39,8.87-3.44,13.33-.08.34-.43.83-.72.87-1.55.23-1.23,1.08-.82,2.06.34.82.6,1.67.9,2.5-.93.31-1.69.62-2.48.79-.25.05-.7-.18-.85-.42-.79-1.21-2.95-1.99-4.32-1.16-2.25,1.37-4.63,2.19-7.2,2.6h-7.01c-2.62-.58-5.24-1.17-7.88-1.71-.55-.11-1.18-.12-1.72.02-1.45.38-2.39-.19-2.93-1.47-.46-1.07-.85-2.17-1.17-3.28-.29-.98-.05-1.7,1.09-2.06,1.15-.37,2.29-.86,3.33-1.48.39-.23.76-1.05.64-1.46-.41-1.41-.93-2.8-2.52-3.45-.67-.27-1.31-.77-1.77-1.32-.41-.49-.56-1.21-.81-1.83-.04-.09.01-.21.02-.31.03-.88-.26-2,.17-2.57.46-.61,1.6-.71,2.45-1,3.24-1.12,6.35-2.58,9.95-2.42,1.84.08,3.11-1.58,2.99-3.97-.13-2.62.73-4.77,2.17-6.8,1.31-1.86,1.37-3.71.13-5.61-.32-.49-.61-.99-.9-1.5-1.3-2.29-3.01-3.68-5.9-3.38-1.72.18-3.51-.05-5.23-.3-1.38-.21-2.78-.59-4.06-1.15-1.25-.54-2.36-1.4-3.64-2.19-.16.54-.31,1.02-.52,1.73-.29-.45-.49-.75-.68-1.05-.15-.03-.3-.06-.45-.09-.17.96-.34,1.93-.55,3.14-.24-.24-.51-.49-.77-.76-.2-.21-.39-.44-.58-.65-.2,0-.4-.02-.6-.03.93-1.36,1.79-2.79,2.84-4.05.27-.32,1.2-.32,1.73-.15,1.41.44,2.77,1.05,4.15,1.59,2.54.99,5.14,1.14,7.81.6,1.24-.25,2.5-.4,3.96-.63-.5-1.41-.97-2.78-1.48-4.13-.71-1.87-.36-3.26,1.1-4.18,2.11-1.33,4.37-1.21,5.71.14.97.98,1.8,1.98,2.3,3.29.3.78.27,1.12-.52,1.46-.65.28-1.21.75-1.82,1.14.61.79,1.22,1.58,2.08,2.7,1.94-4.23,4.48-7.74,2.77-12.25-.21-.54-.4-1.09-.55-1.65-.77-2.87-2.28-4.75-5.61-4.22-.18.03-.39-.11-.95-.29.92-.27,1.51-.45,2.45-.73-.71-.52-1.22-.9-1.55-1.15-.19-.67-.36-1.27-.53-1.87Z"/>
    </g>
  </g>
</svg>