<?xml version="1.0" encoding="UTF-8"?>
<svg id="Layer_2" data-name="Layer 2" xmlns="http://www.w3.org/2000/svg" viewBox="0 0 90.18 90.18">
  <defs>
    <style>
      .cls-1 {
        fill: #c6ae73;
        stroke: #638962;
        stroke-miterlimit: 10;
        stroke-width: .5px;
      }

      .cls-2 {
        fill: #45589c;
        stroke: #45589c;
        stroke-linecap: square;
        stroke-linejoin: round;
        stroke-width: .1px;
      }
    </style>
  </defs>
  <g id="Layer_3" data-name="Layer 3">
    <g>
      <circle class="cls-1" cx="45.09" cy="45.09" r="44.84"/>
      <g>
        <path class="cls-2" d="M22.67,45.13h48.02c0,.5,0,.95,0,1.39,0,7.54,0,15.07,0,22.61,0,2.26-.76,3.01-3.04,3.01-13.98,0-27.96,0-41.94,0-2.25,0-3.05-.78-3.05-3.03,0-7.58,0-15.16,0-22.74,0-.37,0-.75,0-1.25ZM35.84,63.52c.07-.09.15-.18.22-.27-.41-.57-.83-1.14-1.24-1.71-.41.56-.82,1.13-1.44,1.97-.54,0-1.5,0-2.46,0-.7,0-1.64-.15-1.6.9.04.99.96.86,1.67.86.91,0,1.83,0,2.74,0-.08.11-.16.22-.24.34.4.53.8,1.06,1.21,1.6.42-.57.84-1.13,1.43-1.93.09,0,.55,0,1.01,0,6.4,0,12.8,0,19.2,0,2.06,0,4.13,0,6.19,0,.74,0,1.47-.16,1.41-1.01-.02-.28-.84-.57-1.34-.73-.34-.11-.75-.02-1.13-.02-8.09,0-16.17,0-24.26,0-.46,0-.91,0-1.37,0ZM44.57,50.1c-1.25-.02-2.06.65-2.1,1.76-.07,1.93-.1,3.87,0,5.8.08,1.62,1.48,2.35,2.89,1.56,1.53-.87,3.04-1.79,4.52-2.75,1.45-.94,1.43-2.39-.03-3.34-1.45-.93-2.93-1.81-4.41-2.68-.32-.19-.69-.28-.86-.35Z"/>
        <path class="cls-2" d="M31.13,43.34h-8.62c.16-2.97.34-5.91.46-8.84.02-.4-.28-.8-.36-1.21-.42-2.14-.82-4.28-1.24-6.43-.17-.89.04-1.41,1.06-1.58,2.31-.38,4.59-.86,7.12-1.35-.37,1.16-.66,2.14-.98,3.11-.71,2.15-1.46,4.28-2.11,6.45-.14.48-.07,1.16.17,1.6,1.21,2.3,2.52,4.55,3.78,6.83.24.43.44.88.71,1.42Z"/>
        <path class="cls-2" d="M59.89,34.3c3.38,0,6.48,0,9.59,0,.82,0,1.23.33,1.22,1.2-.03,2.56,0,5.12,0,7.88-1.84,0-3.62.01-5.41-.02-.19,0-.45-.22-.55-.4-1.58-2.8-3.15-5.62-4.84-8.66Z"/>
        <path class="cls-2" d="M59.4,27.65c1.12-3.24,2.14-6.25,3.21-9.24.11-.31.54-.65.88-.72,1.27-.28,2.56-.46,3.83-.69.77-.14,1.17.15,1.31.94.38,2.14.81,4.28,1.22,6.42.14.72.09,1.36-.82,1.53-3.12.57-6.25,1.14-9.64,1.75Z"/>
        <path class="cls-2" d="M51.96,34.3c2,0,3.72-.02,5.44.02.27,0,.66.21.79.44,1.55,2.74,3.07,5.5,4.58,8.27.03.06-.02.16-.04.37-1.78,0-3.58.02-5.37-.02-.23,0-.53-.25-.65-.46-1.55-2.78-3.08-5.58-4.74-8.61Z"/>
        <path class="cls-2" d="M45.28,21.07c-1.13,3.26-2.17,6.31-3.25,9.34-.09.25-.43.53-.69.59-1.71.37-3.43.68-5.39,1.06.97-2.82,1.98-5.42,2.75-8.08.42-1.45,1.08-2.16,2.62-2.23,1.24-.06,2.46-.41,3.95-.68Z"/>
        <path class="cls-2" d="M39.15,43.39c-2,0-3.79.02-5.58-.02-.23,0-.53-.24-.65-.46-1.51-2.67-3-5.36-4.48-8.04-.05-.1-.02-.24-.04-.56,1.82,0,3.6-.01,5.39.02.19,0,.44.24.55.43,1.58,2.81,3.15,5.63,4.82,8.62Z"/>
        <path class="cls-2" d="M36.03,34.3c1.98,0,3.69-.02,5.4.02.28,0,.68.19.81.42,1.59,2.79,3.14,5.61,4.84,8.65-2.02,0-3.8.02-5.59-.02-.23,0-.53-.25-.66-.47-1.57-2.77-3.11-5.56-4.8-8.6Z"/>
        <path class="cls-2" d="M44.1,34.3c1.87,0,3.55-.02,5.22.02.3,0,.74.12.86.34,1.6,2.84,3.16,5.7,4.83,8.75-1.99,0-3.74.02-5.49-.02-.26,0-.62-.25-.76-.49-1.42-2.53-2.8-5.07-4.19-7.61-.14-.25-.25-.52-.47-.97Z"/>
        <path class="cls-2" d="M51.67,29.04c1.06-3.15,2.07-6.19,3.13-9.22.09-.26.41-.58.68-.63,1.71-.36,3.44-.66,5.39-1.02-.53,1.54-.99,2.9-1.45,4.26-.18.52-.35,1.03-.54,1.54-.5,1.37-.64,3.21-1.62,3.97-1.09.85-2.94.71-4.46.99-.32.06-.65.06-1.11.1Z"/>
        <path class="cls-2" d="M37.43,22.56c-1.13,3.26-2.17,6.31-3.25,9.35-.08.23-.35.51-.57.55-1.68.32-3.37.58-5.2.89.06-.43.05-.71.14-.96.89-2.66,1.78-5.33,2.72-7.98.13-.37.5-.85.84-.92,1.67-.36,3.37-.6,5.33-.93Z"/>
        <path class="cls-2" d="M43.8,30.58c1.13-3.26,2.15-6.27,3.24-9.25.12-.33.61-.64.98-.73,1.59-.36,3.19-.64,4.99-.98-.41,1.24-.77,2.36-1.15,3.48-.63,1.86-1.25,3.73-1.92,5.58-.12.34-.45.78-.76.85-1.7.39-3.43.68-5.38,1.05Z"/>
      </g>
    </g>
  </g>
</svg>