<?xml version="1.0" encoding="UTF-8"?>
<svg id="Layer_2" data-name="Layer 2" xmlns="http://www.w3.org/2000/svg" viewBox="0 0 90.18 90.18">
  <defs>
    <style>
      .cls-1 {
        fill: #c6ae73;
        stroke: #638962;
        stroke-miterlimit: 10;
        stroke-width: .5px;
      }

      .cls-2 {
        fill: #45589c;
        stroke: #45589c;
        stroke-linecap: square;
        stroke-linejoin: round;
        stroke-width: .1px;
      }
    </style>
  </defs>
  <g id="Layer_3" data-name="Layer 3">
    <g>
      <circle class="cls-1" cx="45.09" cy="45.09" r="44.84"/>
      <g>
        <path class="cls-2" d="M54.24,34.46c-5.77,10.83-11.25,21.17-16.79,31.46-.41.76-1.37,1.84-1.95,1.77-2.61-.32-3.38,1.35-3.01,3.13.31,1.49,1.51,3.5,2.76,3.91,1.26.41,3.24-.62,4.58-1.51.85-.56.9-2.24,1.7-3.03,1.32-1.31,2.83-2.88,4.49-3.22,1.03-.21,3.26,1.46,3.55,2.63.42,1.69-.42,3.7-.73,5.57-.51-.09-1.02-.19-1.53-.28.14-.88.5-1.8.37-2.64-.17-1.12-.73-2.19-1.11-3.27-1.03.54-2.3.87-3.03,1.69-.84.93-1.1,2.34-1.78,3.44-1.78,2.86-4.75,3.8-7.65,2.54-3.04-1.32-4.33-4.33-3.57-7.6.26-1.14-.25-2.44-.31-3.66-.05-.99-.23-2.09.11-2.96,4.25-10.89,8.58-21.75,13.04-32.98,3.65,1.69,7.19,3.32,10.87,5.03Z"/>
        <path class="cls-2" d="M44.98,20.33c2.1-5.93,6.1-7.71,11.42-5.36,5.45,2.41,6.83,6.66,3.77,12.39-5.06-2.34-10.14-4.69-15.19-7.03Z"/>
        <path class="cls-2" d="M44.7,22.14c4.79,2.21,9.57,4.42,14.8,6.83-1.33,1.5-2.45,2.76-3.77,4.25-3.67-1.69-7.48-3.04-10.77-5.18-1.18-.77-1.1-3.46-1.6-5.28.44-.21.89-.41,1.33-.62Z"/>
      </g>
    </g>
  </g>
</svg>