<?xml version="1.0" encoding="UTF-8"?>
<svg id="Layer_2" data-name="Layer 2" xmlns="http://www.w3.org/2000/svg" viewBox="0 0 90.18 90.18">
  <defs>
    <style>
      .cls-1 {
        fill: #c6ae73;
        stroke: #638962;
        stroke-miterlimit: 10;
        stroke-width: .5px;
      }

      .cls-2 {
        fill: #45589c;
        stroke: #45589c;
        stroke-linecap: square;
        stroke-linejoin: round;
        stroke-width: .1px;
      }
    </style>
  </defs>
  <g id="Layer_3" data-name="Layer 3">
    <g>
      <circle class="cls-1" cx="45.09" cy="45.09" r="44.84"/>
      <g>
        <path class="cls-2" d="M63.49,34.01c-1.36.82-2.37,1.66-3.53,2.09-1.34.49-2.75.85-4.09-.38-2.03-1.85-4.2-3.54-6.31-5.3-.17.29-.4.55-.46.84-.3,1.38.73,3.13-.69,4.12-.97.67-2.48.53-3.54,1.12-1.65.93-3.11,2.21-4.69,3.29-.65.45-1,1.45-1.79,1.65-.4.1-.79-.1-1.38-.32-.7-.27-1.21-.62-1.52-.86-.47-.36-1.01-.78-1.34-1.46-.38-.79-.29-1.55-.24-1.91.21-1.77.04-3.59.04-6.36-1.38,2.82-2.88,4.38-1.13,6.81.4.56.41,1.7-.05,2.73-.32.7-.86,1.16-1.37,1.6-.12.1-.48.4-1,.7-.81.48-1.59.94-2.18.79-.32-.08-1.03-.46-1.37-2.87-.3-2.13-.3-5.77,2.32-11.41,1.59-3.43,2.39-5.14,4.04-5.94.82-.4,2.97-.44,7.24-.6,1.34-.05,2.69.1,4.02-.03,3.31-.34,6.09.24,8.33,3.11,1.36,1.74,3.43,2.92,5.21,4.32,1.74,1.38,3.5,2.73,5.49,4.27Z"/>
        <path class="cls-2" d="M53.85,45c.15,1.18.25,1.64.26,2.11.07,5.4.06,5.47-5.45,5.45-1.65,0-2.54.33-3.2,2.01-.45,1.14-1.78,1.96-2.76,2.88-2.98,2.8-7.26,3.09-10.71,1.14-1.33-.75-2.4-1.79-3.11-3.06-.66-1.18-.82-2.39-.98-3.44-.16-1.01-.18-1.86-.17-2.46.03-1.55.04-2.5.51-3.55.45-1.01,1.42-2.35,4.17-3.67,1.1-.53,1.51-.93,2.89-.27,2.08.98,4.43.79,6.13-1.51,2.02-2.75,4.97-3.53,8.23-3.12.72.09,1.5.58,2.01,1.12.3.32.3,1.52.1,1.61-1.89.85-3.73,1.68-5.25,3.2-.42.42-1.61.13-2.44.07-.5-.04-.94,0-1.35.15-.59.21-.96.57-1.27.88-.57.56-1.26,1.25-1.34,2.29-.07.86.32,1.51.54,1.88.12.2.95,1.6,2.31,1.81.71.11,1.48-.21,2.57-.89,2.51-1.55,5.16-2.89,8.33-4.64Z"/>
        <path class="cls-2" d="M49.07,52.78c0,8.18.03,15.32-.02,22.46-.01,1.69-1.03,2.51-2.8,2.57-.31.01-2.12.11-2.91-1.02-.34-.48-.34-.97-.36-1.63-.04-1.39-.21-2.78-.18-4.16.03-1.29-.25-4.02-.81-9.47-.03-.27-.07-.93.31-1.45.18-.25.51-.44,1.11-.56,1.02-.21,1.8-1.75,2.62-2.75.86-1.04,1.64-2.14,3.04-3.99Z"/>
        <path class="cls-2" d="M33.94,61.79h6.05c-.05,2.13-.1,4.26-.15,6.39-.08,3.13-.17,6.25-.26,9.35-.27.24-.71.57-1.35.79-.33.11-1.01.3-1.85.18-.69-.1-1.17-.35-1.28-.42-.29-.16-.7-.39-.96-.85-.23-.39-.25-.78-.24-.95.15-4.8.06-9.6.06-14.51Z"/>
        <path class="cls-2" d="M45.94,44.96c9.53-5.07,13.54-7.14,15.23-7.97.12-.06,3.23-1.59,3.23-1.59h0s.6-.45,1.26-.52c.18-.02.62-.07,1.01.22.4.29.49.74.51.86.08.26.15.69-.06,1.05-.2.33-.55.45-.66.49-1.74.65-3.41,1.48-5.08,2.3-4.04,1.99-8.21,3.77-12.02,6.13-1.85,1.15-2.28-.01-3.42-.97Z"/>
        <path class="cls-2" d="M73.1,28.36c.4.85.78,1.69,1.2,2.53q1.4,2.84-1.08,4.13c-.69.36-1.36.74-2.07,1.05-2.08.9-4.23-.42-4.61-2.82-.04-.23-.04-.6.09-.69,1.95-1.32,3.92-2.6,5.88-3.9.11-.07.23-.12.58-.3Z"/>
        <ellipse class="cls-2" cx="40.96" cy="14.96" rx="6.25" ry="5.96"/>
      </g>
    </g>
  </g>
</svg>