<?xml version="1.0" encoding="UTF-8"?>
<svg id="Layer_2" data-name="Layer 2" xmlns="http://www.w3.org/2000/svg" viewBox="0 0 90.18 90.18">
  <defs>
    <style>
      .cls-1 {
        fill: #c6ae73;
        stroke: #638962;
        stroke-width: .5px;
      }

      .cls-1, .cls-2 {
        stroke-miterlimit: 10;
      }

      .cls-3 {
        fill: #45589c;
        stroke: #45589c;
        stroke-linecap: square;
        stroke-linejoin: round;
        stroke-width: .1px;
      }

      .cls-2 {
        fill: none;
        stroke: #fff;
      }

      .cls-4 {
        fill: #000;
        stroke-width: 0px;
      }
    </style>
  </defs>
  <g id="Layer_3" data-name="Layer 3">
    <g>
      <circle class="cls-1" cx="45.09" cy="45.09" r="44.84"/>
      <path class="cls-3" d="M14.6,44.72c.09-16.9,13.89-30.48,30.87-30.36,16.62.11,30.18,14.01,30.1,30.83-.08,16.87-13.9,30.38-30.95,30.27-16.5-.1-30.11-14.04-30.02-30.74ZM54.88,44.88c-.07-5.51-4.47-9.91-9.86-9.86-5.5.05-9.93,4.54-9.91,10.03.03,5.46,4.6,9.85,10.15,9.74,5.38-.11,9.69-4.55,9.62-9.92Z"/>
      <line class="cls-4" x1="49.51" y1="22.08" x2="63.81" y2="53.62"/>
      <path class="cls-2" d="M46.96,23.06c1.63.04,9.63.39,15.67,6.86,4,4.28,5.13,9.08,5.49,11.17"/>
    </g>
  </g>
</svg>