<?xml version="1.0" encoding="UTF-8"?>
<svg id="Layer_2" data-name="Layer 2" xmlns="http://www.w3.org/2000/svg" viewBox="0 0 90.18 90.18">
  <defs>
    <style>
      .cls-1 {
        fill: #c6ae73;
        stroke: #638962;
        stroke-miterlimit: 10;
        stroke-width: .5px;
      }

      .cls-2 {
        fill: #45589c;
        stroke: #45589c;
        stroke-linecap: square;
        stroke-linejoin: round;
        stroke-width: .1px;
      }
    </style>
  </defs>
  <g id="Layer_2-2" data-name="Layer 2">
    <g>
      <circle class="cls-1" cx="45.09" cy="45.09" r="44.84"/>
      <g>
        <path class="cls-2" d="M57.07,24.87c.21.05.38.18.49.35-.11-.28-.34-.51-.66-.58-.28-.07-.56,0-.77.17.14-.05.29-.08.44-.04l.5.11Z"/>
        <path class="cls-2" d="M58.58,27l-.1-.02c.46.12.74.55.7,1.01v-.03c.1-.43-.17-.86-.6-.95Z"/>
        <path class="cls-2" d="M49.96,1.83l-.13-.03c-.43-.1-.86.17-.95.6l-.03.14c.12-.5.62-.81,1.12-.71Z"/>
        <path class="cls-2" d="M56.05,23.21v-.03c.1-.43-.17-.86-.6-.95h-.06c.43.12.7.53.66.98Z"/>
        <path class="cls-2" d="M54.65,20.53c-.05-.31-.28-.58-.61-.65h0c.31.11.53.35.61.65Z"/>
        <path class="cls-2" d="M50.3,13.63v-.05c.11-.43-.16-.86-.59-.95h-.02c.42.15.67.56.61,1.01Z"/>
        <path class="cls-2" d="M49.45,12.57h-.06c-.4-.1-.79.13-.92.51l-.04.19c.12-.46.55-.74,1.02-.7Z"/>
        <path class="cls-2" d="M51.49,17.88c.15-.19.36-.32.59-.36-.24.02-.46.16-.59.36Z"/>
        <path class="cls-2" d="M52.19,17.52s.1,0,.15,0h0s-.09,0-.14,0Z"/>
        <path class="cls-2" d="M58.45,26.96s-.02,0-.02,0h.04s-.01,0-.02,0Z"/>
        <path class="cls-2" d="M59.17,28.11s0-.09,0-.13l-.06.25s.04-.07.05-.11Z"/>
        <path class="cls-2" d="M56.05,23.34s0-.09,0-.13l-.05.24s.04-.07.05-.11Z"/>
        <path class="cls-2" d="M55.34,22.19s-.05,0-.07,0l.13.03s-.04-.02-.06-.03Z"/>
        <path class="cls-2" d="M53.95,19.83s-.07,0-.1,0l.18.04s-.05-.03-.08-.04Z"/>
        <path class="cls-2" d="M54.54,21.25c.05-.08.1-.17.12-.26.04-.16.02-.31-.02-.46.02.1.02.2,0,.3l-.1.42Z"/>
        <path class="cls-2" d="M51.49,17.88c-.08.11-.14.23-.18.36-.02.07,0,.14,0,.2l.07-.32c.02-.09.06-.17.11-.25Z"/>
        <path class="cls-2" d="M52.33,17.52l.23.05s-.07-.04-.11-.05c-.04-.01-.08,0-.13,0Z"/>
        <path class="cls-2" d="M51.75,16.4c.01-.06,0-.11,0-.17l-.07.31s.05-.09.07-.14Z"/>
        <path class="cls-2" d="M50.29,13.73s0-.06,0-.09l-.04.17s.03-.05.04-.08Z"/>
        <path class="cls-2" d="M49.58,12.57s-.08,0-.13,0l.23.05s-.07-.04-.11-.05Z"/>
        <path class="cls-2" d="M48.43,13.29s0,.02,0,.03v-.05s0,.01,0,.02Z"/>
        <path class="cls-2" d="M49.99,1.83s-.02,0-.03,0h.06s-.02,0-.03,0Z"/>
        <polygon class="cls-2" points="48.84 2.54 48.84 2.55 48.85 2.54 48.84 2.54"/>
        <path class="cls-2" d="M55.15,22.16c-.08-.02-.14.03-.22.04.11-.02.22-.03.33-.01l-.11-.03Z"/>
        <path class="cls-2" d="M58.02,28.83c-.52-.12-.84-.64-.71-1.15.12-.51.62-.82,1.13-.72l-.16-.04c-.43-.1-.86.18-.95.6l-7.11,31.63s-.05-.03-.07-.04l7.54-33.29c.05-.22,0-.43-.11-.61.07.18.11.37.06.57-.12.52-.64.83-1.15.71-.52-.12-.84-.64-.71-1.15.05-.23.2-.42.38-.55-.25.09-.45.29-.52.56l-7.47,32.96s-.03-.01-.05-.02l7.9-34.85c-.17.44-.63.72-1.1.6-.52-.12-.84-.64-.71-1.15.08-.36.37-.62.7-.7-.31.04-.6.21-.68.53l-7.93,35.01s0,0,0,0l7.92-34.98s0-.02.01-.03l.34-1.49c-.21.35-.61.55-1.03.45-.52-.12-.84-.64-.71-1.15.11-.48.57-.78,1.05-.72l-.12-.03c-.36-.08-.71.1-.87.42l-8.4,37.08s-.03,0-.04,0l8.36-36.89c.02-.07.05-.13.08-.19l.38-1.68c.1-.43-.17-.86-.6-.95l-.07-.02c.45.17.72.63.61,1.1-.12.52-.64.84-1.15.72-.45-.11-.73-.51-.72-.95l-8.74,38.59s-.03,0-.05,0l9.17-40.48c-.18.42-.62.68-1.09.57-.52-.12-.84-.64-.71-1.15.12-.52.64-.84,1.15-.72.46.11.74.53.72.98v-.05c.11-.43-.16-.86-.59-.95l-.31-.07c-.43-.1-.86.17-.95.6l-9.32,41.13s-.05,0-.08,0l9.76-43.09c-.15.46-.63.75-1.12.64-.51-.12-.82-.62-.72-1.13l-9.87,43.58s-.01,0-.02,0l9.91-43.74s.03-.05.04-.08l2.32-10.24c.1-.43-.17-.86-.6-.95l-.18-.04c.5.13.81.63.69,1.14-.12.52-.64.84-1.15.71-.51-.12-.83-.63-.72-1.14l-12.35,54.52c-1.37.18-2.52.5-3.22.95-.03.02-.06.04-.09.06-.1.07-.2.15-.28.23-.22.2-.39.4-.44.64-.22.97,1,2.22,2.83,3.43l-4.69,20.72c-.1.43.17.86.6.95l.37.08c.42.1.84-.17.95-.58,0-.02,0-.05,0-.07l4.54-20.06s.01,0,.02,0l-4.55,20.1s0,.01,0,.02c-.05.4.2.79.6.89l.31.07c.43.1.86-.17.95-.6l4.44-19.61s.05.02.08.03l-4.45,19.67c-.1.43.17.86.6.95l.31.07c.43.1.86-.17.95-.6l4.38-19.34s.03.01.05.02l-4.39,19.38c-.1.43.17.86.6.95l.31.07c.39.09.77-.14.91-.5,0-.03,0-.06,0-.1l4.35-19.2s.03,0,.04.01l-4.35,19.18s-.03.07-.04.1c-.04.39.21.77.6.86l.31.07c.42.09.83-.16.94-.57l4.34-19.17s0,0,0,0l-4.34,19.14s0,.02-.01.03h0c-.1.44.17.86.6.96l.31.07c.43.1.86-.17.95-.6l4.36-19.26s.03,0,.05,0l-4.36,19.25c-.1.43.17.86.6.95l.5.11c.43.1.86-.17.95-.6l4.42-19.52s.06,0,.09,0l-4.4,19.55c-.1.43.18.86.6.95l.31.07c.43.1.86-.17.95-.6l4.48-19.94c.7-.02,1.34-.06,1.91-.12,0-.01-.02-.03-.03-.04.03,0,.07,0,.1,0-.03-.04-.06-.11-.09-.15.07.06.12.15.2.17.16.04.33-.03.51-.15.49-.29,1-1.17,1.27-2.3.34-1.46.14-2.76-.46-2.9-.16-.04-.33.03-.51.15-.49.29-1,1.17-1.27,2.3-.16.7-.2,1.36-.13,1.88-.02-.06-.04-.1-.06-.17-.06-.24-.07-.43-.08-.55,0-.04-.05-.68.11-1.32.33-1.36,1.46-2.26,1.7-2.45-.48-.33-1.04-.69-1.67-1.05l7.16-31.83c-.17.44-.63.71-1.1.6ZM49.83,55.86c.25.06.4.31.34.56-.06.25-.31.4-.56.34-.25-.06-.4-.31-.34-.56.06-.25.31-.4.56-.34ZM47.82,55.42c.25.06.4.31.34.56-.06.25-.31.4-.56.34-.25-.06-.4-.31-.34-.56s.31-.4.56-.34ZM45.94,54.98c.25.06.4.31.34.56s-.31.4-.56.34c-.25-.06-.4-.31-.34-.56.06-.25.31-.4.56-.34ZM42.19,54.13c.25.06.4.31.34.56-.06.25-.31.4-.56.34s-.4-.31-.34-.56.31-.4.56-.34ZM38.33,53.3c.25.06.4.31.34.56-.06.25-.31.4-.56.34-.25-.06-.4-.31-.34-.56.06-.25.31-.4.56-.34ZM44.07,54.53c.25.06.4.31.34.56-.06.25-.31.4-.56.34-.25-.06-.4-.31-.34-.56s.31-.4.56-.34ZM40.24,53.71c.25.06.4.31.34.56s-.31.4-.56.34c-.25-.06-.4-.31-.34-.56s.31-.4.56-.34ZM51.6,57.21c-.25-.06-.4-.31-.34-.56.06-.25.31-.4.56-.34.25.06.4.31.34.56-.06.25-.31.4-.56.34Z"/>
        <path class="cls-2" d="M54.89,22.21s.03,0,.04,0c-.01,0-.03,0-.04,0Z"/>
        <path class="cls-2" d="M31.62,59.59c.33.08.68-.2.77-.61.1-.42-.09-.82-.42-.89-.33-.08-.68.2-.77.61-.1.42.09.82.42.89Z"/>
      </g>
    </g>
  </g>
</svg>