<?xml version="1.0" encoding="UTF-8"?>
<svg id="Layer_2" data-name="Layer 2" xmlns="http://www.w3.org/2000/svg" viewBox="0 0 90.18 90.18">
  <defs>
    <style>
      .cls-1 {
        fill: #c6ae73;
        stroke: #638962;
        stroke-width: .5px;
      }

      .cls-1, .cls-2 {
        stroke-miterlimit: 10;
      }

      .cls-3 {
        fill: #45589c;
        stroke: #45589c;
        stroke-linecap: square;
        stroke-linejoin: round;
        stroke-width: .1px;
      }

      .cls-2 {
        fill: none;
        stroke: #fff;
        stroke-width: .3px;
      }
    </style>
  </defs>
  <g id="Layer_3" data-name="Layer 3">
    <g>
      <circle class="cls-1" cx="45.09" cy="45.09" r="44.84"/>
      <g>
        <path class="cls-1" d="M61.01,64.21l-16.71,2.7c-4.38.71-8.54-2.3-9.25-6.68l-4.77-29.56c-.71-4.38,2.3-8.54,6.68-9.25l8.24-1.33,8.47-1.37c4.38-.71,8.54,2.3,9.25,6.68l4.77,29.56c.71,4.38-2.3,8.54-6.68,9.25Z"/>
        <path class="cls-3" d="M69.12,56.3c-.29-4.05-1.26-7.4-2.2-9.85-.32-.26-.64-.53-.97-.79-.07,1.59-.34,3.9-1.32,6.51-1.04,2.78-2.47,4.8-3.52,6.07-1.5.86-4.07,2.07-7.47,2.46-4.55.53-8.14-.69-9.85-1.41-2.57-2.26-5.13-4.51-7.7-6.76-.37-.87-.78-1.6-1.18-2.2-.62-.93-2.31-3.31-2.64-6.68-.18-1.91.14-3.52.44-4.57.61-2,1.21-4,1.82-6.01,1.67-1.16,3.52-2.62,5.39-4.46,3.07-3.01,5.21-6.05,6.68-8.53,2.4,2.34,4.95,4.72,7.65,7.12,3.41,3.03,6.76,5.83,10.02,8.41.23-.47,3.21-6.81-.44-12.98-3.27-5.53-9.19-6.43-9.93-6.54-2.58-.75-8.37-2.05-15.12-.06-3.79,1.12-6.62,2.9-8.44,4.28-1.68,1.95-4.29,5.48-5.89,10.58-1.73,5.49-1.47,10.2-1.14,12.81-1.94,6.15-1.83,10.63-1.32,13.66.24,1.43.8,3.84.84,7.34.03,2.61-.24,4.75-.48,6.2,3.22.59,5.13-.07,6.29-.81,1.22-.78,1.5-1.58,2.75-2.34,1.95-1.19,4.21-1.06,5.84-.74.52.3,1.04.6,1.56.9.82.82,1.98,1.79,3.52,2.64,2.86,1.57,5.56,1.88,7.12,1.93,3.02.41,5.45.14,7.03-.18,1.67-.33,3.09-.83,4.22-1.32,1.22-.63,2.81-1.63,4.4-3.17,2.08-2.02,3.29-4.11,3.96-5.54.18-1.73.25-3.74.09-5.98Z"/>
        <path class="cls-2" d="M65.28,54.23c1.52,2.01,1.18,4.72-1.85,8.43"/>
        <path class="cls-2" d="M59.42,60.56c1.26,1.35,1.05,3.51-1.24,6.83"/>
        <path class="cls-2" d="M55.88,62.2c1.13,2.25.29,4.85-3.37,7.95"/>
        <path class="cls-2" d="M50.08,61.97c1.13,2.25.29,4.85-3.37,7.95"/>
        <path class="cls-2" d="M46.42,60.45c.04,2.52-1.84,4.5-6.48,5.71"/>
        <path class="cls-2" d="M55.47,18.61c3.53-.04,6.42,4.01,8.39,13.91"/>
        <path class="cls-2" d="M48.11,16.57c3.26-.07,5.89,2.9,7.6,10.21"/>
        <path class="cls-2" d="M45,19.06c-1.64-.46-3.91,2.03-7.09,8.76"/>
        <path class="cls-2" d="M39.84,19.06c-1.67-.39-4.56,3.8-9.21,14.53"/>
        <path class="cls-2" d="M30.39,26.57c-1.7.23-2.91,5.17-3.42,16.86"/>
      </g>
    </g>
  </g>
</svg>