<?xml version="1.0" encoding="UTF-8"?>
<svg id="Layer_2" data-name="Layer 2" xmlns="http://www.w3.org/2000/svg" viewBox="0 0 90.18 90.18">
  <defs>
    <style>
      .cls-1 {
        fill: #c6ae73;
        stroke: #638962;
        stroke-miterlimit: 10;
        stroke-width: .5px;
      }

      .cls-2 {
        fill: #45589c;
        stroke: #45589c;
        stroke-linecap: square;
        stroke-linejoin: round;
        stroke-width: .1px;
      }
    </style>
  </defs>
  <g id="Layer_3" data-name="Layer 3">
    <g>
      <path class="cls-2" d="M28.15,53.31c-.43,1.59.28,3.3.35,5,.12.99.38,2.16-.29,2.63-1.02.65-4.66,1.21-3.59-.92.51-.84,1.4-1.61,1.91-2.49.93-1.59-.09-3.55-.05-5.32-.04-.73.3-1.35,1.01-1.61,1.93-.61,3.93-1.14,5.92-1.71,2.38-.73,1.8,3.16,2.28,4.48.2,2.36,1.83,5.47-1.62,6.2-.86.11-1.69-.58-2.09-1.25-.32-.58.22-1.15.71-1.51.82-.64,1.91-1.32,1.87-2.45-.12-.87,0-2.81-1.37-2.78-1.4.22-2.82.77-4.12,1.12-.32.11-.64.26-.83.51l-.07.1Z"/>
      <g>
        <circle class="cls-1" cx="45.09" cy="45.09" r="44.84"/>
        <path class="cls-2" d="M33.4,22.36c.22.34,1.22.46,1.64.99.4.51.45,1.09.48,1.76-.03,4.32,2.74,6.39,6.5,5.99,2.08-.29,3.56-1.81,4.58-4.6.33-.89.91-1.53,1.93-1.43,1.98.05.66-1,.21-1.9-.41-.8-.3-2.2-.53-2.97-.42-1.87-2.8-1.8-4.43-2.13-1.88-.25-4.38-.86-6.12-.46-1.8.46-1.6,3.05-3.24,3.8-.36.24-1.14.41-1.05.89l.04.07Z"/>
        <path class="cls-2" d="M61.85,72.49c-.97-5.09-2.05-10.18-4.33-14.96-.77-1.63-1.79-3.2-2.77-4.73-2.72-4.51-5.01-9.68-7.16-14.74-.07-.47.42-.5,1.41-.48.9,0,2.11,0,3.32,0,1.58-.06,3.19.12,4.46-.09.48-.16.53-.71.56-1.18.13-3.2-2.03-11.25-4.63-12.58-.8-.28-2.06.34-2.51,1.33-.67,2.16,1.01,4.27,1.53,6.48.3.79.26,1.62-.86,1.55-7.53-.77-15.63.01-22.01-4.69-.85-.86.24-1.92.88-2.64.95-1.28,2.97-2.77,2.79-4.29-.54-1.69-3.2-2.04-4.32-.68-2.09,2.19-4.59,4.59-6.39,7.3-.55,1.86,3.38,3.58,4.82,4.39,11.98,4.6,15.26,22.38,10.76,31.47-1.34,2.46-2.78,4.94-3.88,7.56-.66,1.39-.63,3.15.96,3.89,2.33,1.29,4.03-.83,4.87-2.71,2.48-4.86,5.34-9.55,5.75-15.09.08-.78.21-1.62.65-2.28,1.29-2.03,3.53-.19,4.41,1.23,2.45,3.5,4.41,7.27,4.97,11.55.33,2.03.65,4.11,1.47,6.01,1.21,2.9,5.86,1.71,5.29-1.46l-.02-.16Z"/>
        <path class="cls-2" d="M54.45,22.71c.24-.61,1.38-1.1,1.71-1.86.5-1.21-.12-2.6-.1-3.88-.09-1.2.81-1.55,1.85-1.8,1.33-.27,2.86-1.13,4.26-1.01.36.11.52.48.6.83.31,1.88.6,3.76.89,5.82.04.42-.03.91-.44,1.09-2.13.47-4.18-.4-1.73-2.06.8-.57.99-1.38.74-2.26-.1-.39-.21-.85-.53-1.12-.6-.54-1.96.16-2.88.39-.67.19-1.47.47-1.57,1.23-.07,1.04.19,2.2.27,3.3.09.95.34,2.01-.49,2.3-.73.16-2.81.2-2.61-.87l.04-.11Z"/>
        <path class="cls-2" d="M60.65,44.84c-.38,1.8.02,3.91-.18,5.76-.16,1.03-1.53,1.69-2.39,1.72-.78.17-3.45-1.35-1.88-2.22.9-.61,2.36-1.07,2.95-1.95.37-1.38.06-2.9.16-4.54.02-.24.03-.57.23-.73.71-.47,1.89.1,2.59.36,1.49.62,1.64,2.08.98,3.38-.16.29-.33.46-.55.2-.46-.54-.71-2.91-1.83-2.08l-.07.1Z"/>
      </g>
      <path class="cls-2" d="M24.74,45.82c.67-.72,2.1-.98,2.73-1.78.43-1.23.08-2.65.19-4.06.01-.22,0-.54.2-.68.34-.16.38-.09.62-.09,1.67.24,3.45,1.08,2.5,2.99-.68,1.47-.89-1.01-1.34-1.32-1.33-1.26-.84,4.53-1.12,5.61-.12,1.36-2.09.51-3.01.63-.76.02-1.03-.61-.83-1.21l.06-.1Z"/>
    </g>
  </g>
</svg>