<?xml version="1.0" encoding="UTF-8"?>
<svg id="Layer_2" data-name="Layer 2" xmlns="http://www.w3.org/2000/svg" viewBox="0 0 90.18 90.18">
  <defs>
    <style>
      .cls-1 {
        fill: #c6ae73;
        stroke: #638962;
        stroke-miterlimit: 10;
        stroke-width: .5px;
      }

      .cls-2 {
        fill: #45589c;
        stroke: #45589c;
        stroke-linecap: square;
        stroke-linejoin: round;
        stroke-width: .1px;
      }
    </style>
  </defs>
  <g id="Layer_2-2" data-name="Layer 2">
    <g>
      <circle class="cls-1" cx="45.09" cy="45.09" r="44.84"/>
      <path class="cls-2" d="M67.19,43.8c0,9.14,0,18.27,0,27.41,0,4.09-1.61,5.72-5.64,5.72-10.51,0-21.01,0-31.52,0-3.69,0-5.42-1.7-5.42-5.36,0-18.4-.01-36.8,0-55.21,0-3.74,1.65-5.4,5.36-5.41,10.64-.02,21.27-.02,31.91,0,3.73,0,5.3,1.64,5.31,5.44.01,9.14,0,18.27,0,27.41ZM45.84,39.97c-8.42.02-15.32,6.94-15.29,15.31.03,8.55,6.92,15.39,15.44,15.35,8.52-.04,15.31-6.93,15.3-15.51-.01-8.29-7.04-15.18-15.45-15.16ZM45.88,17.24c-4.82,0-8.72,3.9-8.73,8.71,0,4.79,3.91,8.74,8.69,8.77,4.78.03,8.78-3.88,8.81-8.64.04-4.95-3.84-8.85-8.77-8.84Z"/>
      <path class="cls-2" d="M45.82,69.24c-7.75-.02-13.9-6.19-13.88-13.92.02-7.8,6.3-14.05,14.06-14,7.78.05,13.9,6.31,13.86,14.18-.04,7.71-6.22,13.77-14.04,13.74ZM39.37,55.36c.03,3.62,3.06,6.6,6.64,6.52,3.5-.07,6.46-3.07,6.45-6.53,0-3.59-3.01-6.63-6.56-6.62-3.57,0-6.56,3.05-6.53,6.63Z"/>
      <path class="cls-2" d="M45.97,18.56c4.04.03,7.29,3.3,7.31,7.35.02,4.12-3.32,7.46-7.43,7.43-4.03-.03-7.28-3.31-7.29-7.36-.01-4.15,3.29-7.45,7.42-7.42ZM41.35,25.89c-.04,2.54,2.03,4.65,4.55,4.65,2.45,0,4.52-2,4.59-4.43.08-2.52-1.98-4.71-4.47-4.77-2.51-.06-4.62,2-4.67,4.55Z"/>
      <path class="cls-2" d="M51.06,55.31c-.02,2.92-2.31,5.19-5.21,5.16-2.9-.02-5.09-2.29-5.08-5.27.01-2.86,2.18-5,5.08-5.02,2.98-.02,5.22,2.2,5.2,5.13Z"/>
      <path class="cls-2" d="M45.99,29.16c-1.81.04-3.23-1.33-3.26-3.16-.02-1.76,1.24-3.12,2.99-3.21,1.86-.09,3.29,1.21,3.37,3.04.07,1.82-1.29,3.28-3.1,3.32Z"/>
    </g>
  </g>
</svg>