<?xml version="1.0" encoding="UTF-8"?>
<svg id="Layer_2" data-name="Layer 2" xmlns="http://www.w3.org/2000/svg" viewBox="0 0 90.18 90.18">
  <defs>
    <style>
      .cls-1 {
        fill: #c6ae73;
        stroke: #638962;
        stroke-miterlimit: 10;
        stroke-width: .5px;
      }

      .cls-2 {
        fill: #45589c;
        stroke: #45589c;
        stroke-linecap: square;
        stroke-linejoin: round;
        stroke-width: .1px;
      }
    </style>
  </defs>
  <g id="Layer_2-2" data-name="Layer 2">
    <g>
      <circle class="cls-1" cx="45.09" cy="45.09" r="44.84"/>
      <g>
        <path class="cls-2" d="M19.37,25.78c-.32-3.36-.35-3.44,2.61-4.54,14.15-5.27,28.5-5.71,42.99-1.53,1.79.52,3.52,1.29,5.31,1.81,1.5.44,2.21,1.24,1.92,2.83-.08.42-.06.87-.09,1.39-.56.1-1.07.19-1.67.29v32.71c1.11.06,2.18.11,3.32.17v8.31h-15.1v-8.32h4.84V26.01H28.08v32.83h4.95v8.39h-15.1v-8.3c1.07-.05,2.14-.1,3.27-.16V26.02c-.6-.08-1.17-.15-1.83-.24ZM24.71,38.44c-3.79,1.96-3.41,6.8,0,8.19,3.55-2.79,3.55-5.83,0-8.19ZM67.02,46.68c3.74-2.93,3.61-6.05-.26-8.2-3.31,2.63-3.24,5.57.26,8.2ZM24.72,29.89c-4.2,2.62-2.89,5.52.17,6.97,3.1-1.8,3.19-5.03-.17-6.97ZM66.92,36.9c3.69-2.37,3.46-4.91,0-6.97-3.39,1.73-3.22,5.33,0,6.97ZM24.67,48.15c-3.56,2.09-3.41,4.88.05,6.86,2.98-1.67,3.72-4.46-.05-6.86ZM66.95,55.05c3.65-2.28,3.38-4.98.02-6.85-3.46,1.98-3.27,4.97-.02,6.85ZM69.65,26.04h-5.39c1.06,1,1.83,1.73,2.66,2.51.89-.82,1.68-1.54,2.73-2.51ZM24.77,28.6c.82-.9,1.53-1.67,2.37-2.6h-5.2c1.07.98,1.85,1.69,2.83,2.6ZM27.28,58.75c-1.01-.92-1.78-1.61-2.58-2.34-.83.76-1.57,1.44-2.55,2.34h5.13ZM69.52,58.78c-1.03-.94-1.75-1.6-2.58-2.37-.8.73-1.56,1.43-2.59,2.37h5.17ZM67.55,37.68c.63.53,1.17.99,1.84,1.55v-3.21c-.73.66-1.24,1.12-1.84,1.66ZM69.32,57.33v-3.11c-.69.66-1.14,1.09-1.68,1.6.61.54,1.07.96,1.68,1.5ZM67.64,29.18c.62.54,1.09.95,1.75,1.53v-3.18c-.69.66-1.15,1.09-1.75,1.65ZM24.01,29.18c-.58-.53-1.06-.98-1.74-1.61v3.12c.68-.59,1.15-1,1.74-1.51ZM22.28,39.01c.66-.5,1.21-.91,1.81-1.36-.73-.61-1.18-.99-1.81-1.52v2.88ZM23.97,47.41c-.62-.52-1.06-.9-1.66-1.41v2.87c.65-.57,1.08-.95,1.66-1.46ZM25.35,47.43c.58.5,1.03.9,1.6,1.39v-2.86c-.62.57-1.01.94-1.6,1.48ZM66.35,47.42c-.65-.55-1.11-.94-1.7-1.44v2.88c.63-.54,1.08-.91,1.7-1.44ZM69.34,48.85v-2.91c-.66.63-1.1,1.05-1.6,1.53.58.5,1.02.88,1.6,1.38ZM22.3,54.27v3.11c.69-.64,1.14-1.07,1.67-1.56-.56-.51-1.01-.93-1.67-1.54ZM26.95,30.53v-2.48c-.55.39-1.02.72-1.56,1.09.57.51.97.86,1.56,1.39ZM27.04,54.3c-.67.62-1.11,1.02-1.63,1.51.58.49,1.03.86,1.63,1.38v-2.89Z"/>
        <path class="cls-2" d="M34.9,70.22v-11.25h21.95v11.25h-21.95Z"/>
        <path class="cls-2" d="M61.01,57.95h-7.2v-10.71h7.2v10.71ZM57.42,57.08c1.16-.08,1.91-.7,2.04-1.91.12-1.08-.96-2.16-2.05-2.11-1.23.06-1.96.8-1.97,1.98-.02,1.19.7,1.9,1.98,2.03ZM59.3,49.84c-.93-.56-1.51-1.2-1.97-1.11-.49.09-.87.85-1.29,1.32.47.43.93,1.17,1.42,1.2.47.02.97-.7,1.84-1.4Z"/>
        <path class="cls-2" d="M38.06,57.89h-7.22v-10.62h7.22v10.62ZM36.46,55.05c-.13-1.17-.77-1.89-1.97-1.98-1.11-.09-2.12.95-2.03,2.08.1,1.21.79,1.91,2.03,1.9,1.25-.01,1.85-.77,1.97-2ZM34.41,48.03c-.63.91-1.31,1.47-1.25,1.93.07.51.81.92,1.27,1.37.45-.46,1.19-.88,1.25-1.38.06-.46-.63-1-1.27-1.91Z"/>
        <path class="cls-2" d="M57.36,53.48c.56.8,1.1,1.23,1.1,1.66,0,.34-.65.93-1.03.95-.36.02-1.03-.56-1.05-.89-.02-.43.48-.89.98-1.71Z"/>
        <path class="cls-2" d="M35.88,55.01c-.62.52-.99,1.08-1.37,1.09-.38,0-.76-.55-1.14-.86.34-.4.62-1.01,1.05-1.14.29-.09.79.47,1.47.92Z"/>
      </g>
    </g>
  </g>
</svg>