<?xml version="1.0" encoding="UTF-8"?>
<svg id="Layer_2" data-name="Layer 2" xmlns="http://www.w3.org/2000/svg" viewBox="0 0 90.18 90.18">
  <defs>
    <style>
      .cls-1 {
        stroke: #638962;
      }

      .cls-1, .cls-2 {
        fill: #c6ae73;
        stroke-miterlimit: 10;
        stroke-width: .5px;
      }

      .cls-3 {
        fill: #45589c;
        stroke-linecap: square;
        stroke-linejoin: round;
        stroke-width: .1px;
      }

      .cls-3, .cls-2 {
        stroke: #45589c;
      }
    </style>
  </defs>
  <g id="new-graphic">
    <g>
      <circle class="cls-1" cx="45.09" cy="45.09" r="44.84"/>
      <path class="cls-2" d="M68.08,59.28l-4.43-26.77c-1.04-6.29-7.04-10.59-13.34-9.55l-11.72,1.94c-3.15.52-5.8,2.28-7.53,4.7-2.01,2.81-2.04,5.89-2.02,8.64.03,6.01,2.19,9.81,1.05,10.48-.19.11-.44.12-.71.07-.49-.29-.98-.5-1.46-.59-1.38-.77-2.91-1.91-3.56-1.36-.4.34-.2,1.08-.03,2.11.12.7.17,1.28.2,1.81-.22.85-.27,1.83-.14,2.9-.11.88-.19,1.63.15,2.75.94,3.12,4.02,5.75,5.82,5.28.03,0,.05-.02.07-.03.47.05.93.03,1.36-.14.49-.2.88-.56,1.2-1.02.21,1.16.18,3.13.48,4.5.63,2.93,3.54,6.52,13.34,9.55l11.72-1.94c6.29-1.04,10.59-7.04,9.55-13.34Z"/>
      <path class="cls-3" d="M41.12,26.03c-5.16.05-10.44,4.48-11.36,9.33-.21,1.13.1,3.44.72,8.05.26,1.96.52,3.56.71,4.63.18,2,.36,4.01.54,6.01-1.19-1.13-2.39-2.27-3.58-3.4-.63-.13-5.38-1.22-7.79-5.91-2.16-4.21-.83-8.23-.59-8.92.2-1.6.53-3.39,1.03-5.31.83-3.12,1.93-5.75,2.99-7.85,1.98-1.67,4.88-3.76,8.73-5.48,4.21-1.89,8.02-2.65,10.73-2.97,1.63-.25,8.24-1.06,13.7,3.24,1.77,1.4,2.96,2.97,3.75,4.28,1.36,2.23,2.91,5.33,3.94,9.24.58,2.18.88,4.19,1.02,5.93l-1.11,4.09c-.35-1.88-.96-4.23-2.06-6.8-1.12-2.62-2.41-4.71-3.54-6.28-1.94.22-4.32.33-7.02.11-3.21-.26-5.92-.92-8.01-1.59-.63-.19-1.62-.42-2.82-.4Z"/>
      <g>
        <ellipse class="cls-3" cx="60.68" cy="47.52" rx="4.88" ry="3.92" transform="translate(-9.49 15.65) rotate(-13.64)"/>
        <ellipse class="cls-3" cx="44.43" cy="51.71" rx="4.88" ry="3.92" transform="translate(-10.94 11.93) rotate(-13.64)"/>
        <line class="cls-3" x1="55.82" y1="48.15" x2="49.04" y2="50.03"/>
        <polyline class="cls-3" points="39.69 52.86 39.57 51.71 23.47 48.48"/>
      </g>
    </g>
  </g>
</svg>