<?xml version="1.0" encoding="UTF-8"?>
<svg id="Layer_2" data-name="Layer 2" xmlns="http://www.w3.org/2000/svg" viewBox="0 0 90.18 90.18">
  <defs>
    <style>
      .cls-1 {
        fill: #c6ae73;
        stroke: #638962;
        stroke-miterlimit: 10;
        stroke-width: .5px;
      }

      .cls-2 {
        fill: #45589c;
        stroke: #45589c;
        stroke-linecap: square;
        stroke-linejoin: round;
        stroke-width: .1px;
      }
    </style>
  </defs>
  <g id="Layer_2-2" data-name="Layer 2">
    <g>
      <circle class="cls-1" cx="45.09" cy="45.09" r="44.84"/>
      <g>
        <path class="cls-2" d="M41.49,48.46c2.62-2.6,5.12-5.17,7.74-7.62.37-.34,1.41-.3,1.97-.05,2.71,1.22,5.41,2.48,8.01,3.91,2.49,1.37,5.01,2.27,7.9,1.95,1.67-.19,2.39.63,2.36,2.32-.06,3.05-.03,6.1-.01,9.15,0,1.2-.4,1.88-1.69,2.18-1.1.26-2.19.8-3.12,1.46-5.61,4.02-11.44,4.39-17.62,1.38-1.25-.61-2.73-.99-4.13-1.05-3.53-.15-7.07-.03-10.6-.06-2.01-.02-3.19-1.09-3.17-2.76.02-1.63,1.26-2.72,3.23-2.73,3.46-.03,6.93.02,10.39-.03.81-.01,1.68-.1,2.41-.42,2.44-1.07,2.61-2.4.61-4.08-1.38-1.16-2.76-2.3-4.29-3.56Z"/>
        <path class="cls-2" d="M49.7,32.9q3.41,2.74.43,5.68c-5.15,5.13-10.25,10.32-15.46,15.39-.81.79-2.02,1.31-3.14,1.6-1.64.42-3.15,1.25-3.13,2.86.04,2.64-1.78,3.86-3.36,5.1-1.87,1.46-4.13,2.44-6.23,3.62-.16-.13-.32-.26-.47-.38,1.33-2.24,2.3-4.83,4.06-6.65,8.78-9.04,17.77-17.88,26.68-26.79.14-.14.34-.24.61-.43Z"/>
        <path class="cls-2" d="M43.38,37.72c-3.75,2.98-5.94,7.81-11.2,8.97-2.17.48-3.59,1.73-4.65,3.7-1.34,2.5-2.84,4.93-4.48,7.25-.76,1.08-1.94,1.92-3.07,2.65-.43.27-1.42.1-1.86-.24-.32-.25-.4-1.23-.17-1.7,2.11-4.44,4.28-8.86,6.52-13.23.31-.61,1.08-1.1,1.75-1.39,5.02-2.16,10.07-4.27,15.12-6.37.52-.22,1.11-.25,1.67-.37.12.25.24.49.37.74Z"/>
        <path class="cls-2" d="M53.97,34.98c-1.33-1.24-2.27-2.12-3.33-3.1,3.73-3.75,7.41-7.57,11.28-11.2.49-.46,2.34-.27,2.83.28.5.56.52,2.31,0,2.87-3.54,3.87-7.26,7.56-10.79,11.16Z"/>
        <path class="cls-2" d="M46.77,54.09c-4.07,2.66-8.02.8-11.59,1.62,2.04-2.04,4-4,6.16-6.17,1.39,1.17,3.21,2.69,5.42,4.55Z"/>
        <path class="cls-2" d="M67.87,19.46c-.99.29-1.77.53-2.55.76-.14-.33-.28-.66-.42-.99l3.13-1.7c.67,1.28,2.08,2.71,1.85,3.81-.42,2.05-1.47,4.16-2.83,5.77-1.91,2.26-4.42,3.98-6.49,6.12-.88.91-1.29,2.28-1.93,3.44-.18.32-.4.61-.61.91-.33-.3-.98-.67-.93-.88.25-1.1.4-2.39,1.09-3.19,1.44-1.67,3.24-3.02,4.8-4.59,1.65-1.66,3.33-3.34,4.74-5.2.97-1.28,1.44-2.89.17-4.26Z"/>
        <path class="cls-2" d="M27.99,61.86c2.2.51,3.67.93,5.17,1.17.95.15,1.96-.08,2.9.08.57.1,1.3.51,1.54.99.19.37-.15,1.43-.47,1.54-.54.18-1.33,0-1.88-.29-.69-.36-1.23-.99-2.11-1.72-.07,1.16.02,1.98-.21,2.71-.18.57-.66,1.25-1.18,1.45-.41.16-1.24-.2-1.58-.59-.91-1.04-1.82-2.14-2.4-3.37-.29-.6.15-1.55.21-1.96Z"/>
        <path class="cls-2" d="M33.05,47.55c-2.19,2.17-4.48,4.43-6.9,6.83,2.17-2.64,2.62-6.7,6.9-6.83Z"/>
      </g>
    </g>
  </g>
</svg>